<svg xmlns="http://www.w3.org/2000/svg" xmlns:xlink="http://www.w3.org/1999/xlink" width="1207.15" height="803.5" viewBox="0 0 1207.15 803.5">
  <defs>
    <linearGradient id="linear-gradient" x1="0.329" y1="0.841" x2="0.906" y2="0.119" gradientUnits="objectBoundingBox">
      <stop offset="0" stop-color="#ff65c3"/>
      <stop offset="1" stop-color="#ffa1da"/>
    </linearGradient>
  </defs>
  <path id="CurveVector" d="M1214.33,1132h0c-96.628-35.954-167.624-55.854-237.393-66.538-67.742-10.374-133.3-12.055-224.03-14.381h-.216c-30.78-.79-65.666-1.685-104.43-3.038-12.839-.448-25.423-1.384-37.4-2.782-11.568-1.349-22.9-3.166-33.678-5.4-10.386-2.156-20.528-4.76-30.146-7.741a283.231,283.231,0,0,1-26.809-9.793,250.748,250.748,0,0,1-23.667-11.56,228.364,228.364,0,0,1-20.73-13.052,206.884,206.884,0,0,1-67.892-80.766,231.547,231.547,0,0,1-16.661-48.38,234.6,234.6,0,0,1-5.267-35.943c-.564-8.706-.326-14.033-.322-14.076.06-.863,1.461-21.485.538-51.472-.556-18.032-1.823-36-3.766-53.4a556,556,0,0,0-10.4-62.127c-11.386-49.588-29.069-90.386-52.558-121.263-29.364-38.6-67.929-61.7-114.623-68.672-12.464-1.86-24.617-4.262-36.12-7.139a322.06,322.06,0,0,1-31.769-9.677,277.108,277.108,0,0,1-27.7-11.8,244.729,244.729,0,0,1-23.9-13.514c-26.075-16.779-47.366-37.931-63.28-62.869A200.822,200.822,0,0,1,7.179,328.5H1214.33Z" transform="translate(-7.179 -328.5)" fill="url(#linear-gradient)"/>
</svg>
