<?xml version="1.0"?>
<svg xmlns="http://www.w3.org/2000/svg" xmlns:xlink="http://www.w3.org/1999/xlink" xmlns:svgjs="http://svgjs.com/svgjs" version="1.1" width="512" height="512" x="0" y="0" viewBox="0 0 512 512" style="enable-background:new 0 0 512 512" xml:space="preserve" class=""><g><g xmlns="http://www.w3.org/2000/svg"><g><path d="m238.7 504.8c9.5 9.5 25 9.5 34.5 0l135.7-135.7c84.5-84.5 84.5-221.4 0-305.8-84.5-84.5-221.4-84.5-305.8 0-84.5 84.5-84.5 221.4 0 305.8z" fill="#ff5c99" data-original="#fddf7c" style="" class=""/></g><g><path d="m408.9 63.3c-46.2-46.2-108-67.1-168.4-62.8 50.1 3.6 99.2 24.5 137.5 62.8 84.5 84.5 84.5 221.4 0 305.8l-135.6 135.7c-.6.6-1.2 1.1-1.8 1.6 9.6 7.9 23.8 7.3 32.7-1.6l135.7-135.7c84.4-84.4 84.4-221.3-.1-305.8z" fill="#fd4e7f" data-original="#fdd44e" style="" class=""/></g><g><circle cx="256" cy="210.4" fill="#f3f4f3" r="152.2" data-original="#f3f4f3" style=""/></g><g><path d="m256 58.2c-5.2 0-10.4.3-15.5.8 76.8 7.7 136.8 72.6 136.8 151.4s-60 143.7-136.8 151.4c5.1.5 10.2.8 15.5.8 84.1 0 152.2-68.2 152.2-152.2 0-84.1-68.1-152.2-152.2-152.2z" fill="#e2ecf0" data-original="#e2ecf0" style="" class=""/></g><g><path d="m259.1 141.2 22.3 38.9c.5.9 1.4 1.5 2.4 1.7l43.9 9.2c2.7.6 3.8 3.9 1.9 5.9l-30.1 33.2c-.7.8-1 1.8-.9 2.8l4.8 44.6c.3 2.7-2.5 4.8-5 3.6l-40.9-18.4c-.9-.4-2-.4-2.9 0l-40.9 18.4c-2.5 1.1-5.3-.9-5-3.6l4.8-44.6c.1-1-.2-2-.9-2.8l-30.1-33.2c-1.9-2-.8-5.3 1.9-5.9l43.9-9.2c1-.2 1.9-.8 2.4-1.7l22.3-38.9c1.3-2.4 4.7-2.4 6.1 0z" fill="#ff5c99" data-original="#fddf7c" style="" class=""/></g><g><path d="m329.5 196.9c1.9-2 .8-5.3-1.9-5.9l-16.9-3.5c.1 1-.1 2-.9 2.9l-30.1 33.2c-.7.8-1 1.8-.9 2.8l4.8 44.6c.1 1.3-.4 2.4-1.2 3.1l15.8 7.1c2.5 1.1 5.3-.9 5-3.6l-4.8-44.6c-.1-1 .2-2 .9-2.8z" fill="#fd4e7f" data-original="#fdd44e" style="" class=""/></g></g></g></svg>
