<svg xmlns="http://www.w3.org/2000/svg" xmlns:xlink="http://www.w3.org/1999/xlink" width="1105.85" height="429.928" viewBox="0 0 1105.85 429.928">
  <defs>
    <filter id="Ellisse_13" x="40.496" y="58.199" width="109.174" height="109.174" filterUnits="userSpaceOnUse">
      <feOffset dy="3" input="SourceAlpha"/>
      <feGaussianBlur stdDeviation="3" result="blur"/>
      <feFlood flood-color="#fff8f8" flood-opacity="0.769"/>
      <feComposite operator="in" in2="blur"/>
      <feComposite in="SourceGraphic"/>
    </filter>
    <filter id="Ellisse_14" x="200.39" y="107.622" width="103.919" height="103.919" filterUnits="userSpaceOnUse">
      <feOffset dy="3" input="SourceAlpha"/>
      <feGaussianBlur stdDeviation="3" result="blur-2"/>
      <feFlood flood-color="#fff8f8" flood-opacity="0.769"/>
      <feComposite operator="in" in2="blur-2"/>
      <feComposite in="SourceGraphic"/>
    </filter>
    <filter id="Ellisse_15" x="443.187" y="232.5" width="103.919" height="103.919" filterUnits="userSpaceOnUse">
      <feOffset dy="3" input="SourceAlpha"/>
      <feGaussianBlur stdDeviation="3" result="blur-3"/>
      <feFlood flood-color="#fff8f8" flood-opacity="0.769"/>
      <feComposite operator="in" in2="blur-3"/>
      <feComposite in="SourceGraphic"/>
    </filter>
    <filter id="Ellisse_16" x="322.175" y="134.031" width="103.919" height="103.919" filterUnits="userSpaceOnUse">
      <feOffset dy="3" input="SourceAlpha"/>
      <feGaussianBlur stdDeviation="3" result="blur-4"/>
      <feFlood flood-color="#fff8f8" flood-opacity="0.769"/>
      <feComposite operator="in" in2="blur-4"/>
      <feComposite in="SourceGraphic"/>
    </filter>
    <filter id="Ellisse_17" x="612.701" y="289.436" width="98.664" height="98.664" filterUnits="userSpaceOnUse">
      <feOffset dy="3" input="SourceAlpha"/>
      <feGaussianBlur stdDeviation="3" result="blur-5"/>
      <feFlood flood-color="#fff8f8" flood-opacity="0.769"/>
      <feComposite operator="in" in2="blur-5"/>
      <feComposite in="SourceGraphic"/>
    </filter>
    <filter id="Ellisse_18" x="772.006" y="283.776" width="103.867" height="102.92" filterUnits="userSpaceOnUse">
      <feOffset dy="3" input="SourceAlpha"/>
      <feGaussianBlur stdDeviation="3" result="blur-6"/>
      <feFlood flood-color="#fff8f8" flood-opacity="0.769"/>
      <feComposite operator="in" in2="blur-6"/>
      <feComposite in="SourceGraphic"/>
    </filter>
    <filter id="Ellisse_20" x="928.639" y="318.01" width="98.664" height="98.664" filterUnits="userSpaceOnUse">
      <feOffset dy="3" input="SourceAlpha"/>
      <feGaussianBlur stdDeviation="3" result="blur-7"/>
      <feFlood flood-color="#fff8f8" flood-opacity="0.769"/>
      <feComposite operator="in" in2="blur-7"/>
      <feComposite in="SourceGraphic"/>
    </filter>
    <filter id="Ellisse_21" x="27.242" y="44.945" width="135.682" height="135.682" filterUnits="userSpaceOnUse">
      <feOffset dy="3" input="SourceAlpha"/>
      <feGaussianBlur stdDeviation="3" result="blur-8"/>
      <feFlood flood-color="#fff8f8" flood-opacity="0.769"/>
      <feComposite operator="in" in2="blur-8"/>
      <feComposite in="SourceGraphic"/>
    </filter>
    <filter id="Ellisse_22" x="187.135" y="94.367" width="130.427" height="130.427" filterUnits="userSpaceOnUse">
      <feOffset dy="3" input="SourceAlpha"/>
      <feGaussianBlur stdDeviation="3" result="blur-9"/>
      <feFlood flood-color="#fff8f8" flood-opacity="0.769"/>
      <feComposite operator="in" in2="blur-9"/>
      <feComposite in="SourceGraphic"/>
    </filter>
    <filter id="Ellisse_23" x="429.933" y="219.245" width="130.427" height="130.427" filterUnits="userSpaceOnUse">
      <feOffset dy="3" input="SourceAlpha"/>
      <feGaussianBlur stdDeviation="3" result="blur-10"/>
      <feFlood flood-color="#fff8f8" flood-opacity="0.769"/>
      <feComposite operator="in" in2="blur-10"/>
      <feComposite in="SourceGraphic"/>
    </filter>
    <filter id="Ellisse_24" x="308.92" y="120.777" width="130.427" height="130.427" filterUnits="userSpaceOnUse">
      <feOffset dy="3" input="SourceAlpha"/>
      <feGaussianBlur stdDeviation="3" result="blur-11"/>
      <feFlood flood-color="#fff8f8" flood-opacity="0.769"/>
      <feComposite operator="in" in2="blur-11"/>
      <feComposite in="SourceGraphic"/>
    </filter>
    <filter id="Ellisse_25" x="599.446" y="276.181" width="125.173" height="125.173" filterUnits="userSpaceOnUse">
      <feOffset dy="3" input="SourceAlpha"/>
      <feGaussianBlur stdDeviation="3" result="blur-12"/>
      <feFlood flood-color="#fff8f8" flood-opacity="0.769"/>
      <feComposite operator="in" in2="blur-12"/>
      <feComposite in="SourceGraphic"/>
    </filter>
    <filter id="Ellisse_26" x="758.752" y="270.522" width="130.375" height="129.429" filterUnits="userSpaceOnUse">
      <feOffset dy="3" input="SourceAlpha"/>
      <feGaussianBlur stdDeviation="3" result="blur-13"/>
      <feFlood flood-color="#fff8f8" flood-opacity="0.769"/>
      <feComposite operator="in" in2="blur-13"/>
      <feComposite in="SourceGraphic"/>
    </filter>
    <filter id="Ellisse_27" x="915.384" y="304.755" width="125.172" height="125.172" filterUnits="userSpaceOnUse">
      <feOffset dy="3" input="SourceAlpha"/>
      <feGaussianBlur stdDeviation="3" result="blur-14"/>
      <feFlood flood-color="#fff8f8" flood-opacity="0.769"/>
      <feComposite operator="in" in2="blur-14"/>
      <feComposite in="SourceGraphic"/>
    </filter>
    <filter id="Ellisse_28" x="27.242" y="44.945" width="135.682" height="135.682" filterUnits="userSpaceOnUse">
      <feOffset dy="3" input="SourceAlpha"/>
      <feGaussianBlur stdDeviation="3" result="blur-15"/>
      <feFlood flood-color="#fff8f8" flood-opacity="0.769"/>
      <feComposite operator="in" in2="blur-15"/>
      <feComposite in="SourceGraphic"/>
    </filter>
    <filter id="Ellisse_29" x="187.135" y="94.367" width="130.427" height="130.427" filterUnits="userSpaceOnUse">
      <feOffset dy="3" input="SourceAlpha"/>
      <feGaussianBlur stdDeviation="3" result="blur-16"/>
      <feFlood flood-color="#fff8f8" flood-opacity="0.769"/>
      <feComposite operator="in" in2="blur-16"/>
      <feComposite in="SourceGraphic"/>
    </filter>
    <filter id="Ellisse_30" x="429.933" y="219.245" width="130.427" height="130.427" filterUnits="userSpaceOnUse">
      <feOffset dy="3" input="SourceAlpha"/>
      <feGaussianBlur stdDeviation="3" result="blur-17"/>
      <feFlood flood-color="#fff8f8" flood-opacity="0.769"/>
      <feComposite operator="in" in2="blur-17"/>
      <feComposite in="SourceGraphic"/>
    </filter>
    <filter id="Ellisse_31" x="308.92" y="120.777" width="130.427" height="130.427" filterUnits="userSpaceOnUse">
      <feOffset dy="3" input="SourceAlpha"/>
      <feGaussianBlur stdDeviation="3" result="blur-18"/>
      <feFlood flood-color="#fff8f8" flood-opacity="0.769"/>
      <feComposite operator="in" in2="blur-18"/>
      <feComposite in="SourceGraphic"/>
    </filter>
    <filter id="Ellisse_32" x="599.446" y="276.181" width="125.173" height="125.173" filterUnits="userSpaceOnUse">
      <feOffset dy="3" input="SourceAlpha"/>
      <feGaussianBlur stdDeviation="3" result="blur-19"/>
      <feFlood flood-color="#fff8f8" flood-opacity="0.769"/>
      <feComposite operator="in" in2="blur-19"/>
      <feComposite in="SourceGraphic"/>
    </filter>
    <filter id="Ellisse_33" x="758.752" y="270.522" width="130.375" height="129.429" filterUnits="userSpaceOnUse">
      <feOffset dy="3" input="SourceAlpha"/>
      <feGaussianBlur stdDeviation="3" result="blur-20"/>
      <feFlood flood-color="#fff8f8" flood-opacity="0.769"/>
      <feComposite operator="in" in2="blur-20"/>
      <feComposite in="SourceGraphic"/>
    </filter>
    <filter id="Ellisse_34" x="915.384" y="304.755" width="125.172" height="125.172" filterUnits="userSpaceOnUse">
      <feOffset dy="3" input="SourceAlpha"/>
      <feGaussianBlur stdDeviation="3" result="blur-21"/>
      <feFlood flood-color="#fff8f8" flood-opacity="0.769"/>
      <feComposite operator="in" in2="blur-21"/>
      <feComposite in="SourceGraphic"/>
    </filter>
  </defs>
  <g id="Lights" transform="translate(-245.99 25.821) rotate(3)">
    <path id="line" d="M261.235-39.475c8.127,89.4,149.774,152.1,231.047,143.969S666.438,127.715,757,220.6s240.336,8.127,385.466,38.314,208.988,6.966,208.988,6.966" fill="none" stroke="#3b3b3b" stroke-width="1"/>
    <g id="light_spheres" data-name="light spheres">
      <g transform="matrix(1, -0.05, 0.05, 1, 244.3, -38.66)" filter="url(#Ellisse_13)">
        <g id="Ellisse_13-2" data-name="Ellisse 13" transform="translate(80.89 94.02) rotate(3)" fill="#fff" stroke="#fff" stroke-width="1">
          <circle cx="15" cy="15" r="15" stroke="none"/>
          <circle cx="15" cy="15" r="14.5" fill="none"/>
        </g>
      </g>
      <g transform="matrix(1, -0.05, 0.05, 1, 244.3, -38.66)" filter="url(#Ellisse_14)">
        <g id="Ellisse_14-2" data-name="Ellisse 14" transform="translate(240.52 143.44) rotate(3)" fill="#fff" stroke="#fff" stroke-width="1">
          <circle cx="12.5" cy="12.5" r="12.5" stroke="none"/>
          <circle cx="12.5" cy="12.5" r="12" fill="none"/>
        </g>
      </g>
      <g transform="matrix(1, -0.05, 0.05, 1, 244.3, -38.66)" filter="url(#Ellisse_15)">
        <g id="Ellisse_15-2" data-name="Ellisse 15" transform="translate(483.32 268.32) rotate(3)" fill="#fff" stroke="#fff" stroke-width="1">
          <circle cx="12.5" cy="12.5" r="12.5" stroke="none"/>
          <circle cx="12.5" cy="12.5" r="12" fill="none"/>
        </g>
      </g>
      <g transform="matrix(1, -0.05, 0.05, 1, 244.3, -38.66)" filter="url(#Ellisse_16)">
        <g id="Ellisse_16-2" data-name="Ellisse 16" transform="translate(362.31 169.85) rotate(3)" fill="#fff" stroke="#fff" stroke-width="1">
          <circle cx="12.5" cy="12.5" r="12.5" stroke="none"/>
          <circle cx="12.5" cy="12.5" r="12" fill="none"/>
        </g>
      </g>
      <g transform="matrix(1, -0.05, 0.05, 1, 244.3, -38.66)" filter="url(#Ellisse_17)">
        <g id="Ellisse_17-2" data-name="Ellisse 17" transform="translate(652.57 325.26) rotate(3)" fill="#fff" stroke="#fff" stroke-width="1">
          <circle cx="10" cy="10" r="10" stroke="none"/>
          <circle cx="10" cy="10" r="9.5" fill="none"/>
        </g>
      </g>
      <g transform="matrix(1, -0.05, 0.05, 1, 244.3, -38.66)" filter="url(#Ellisse_18)">
        <g id="Ellisse_18-2" data-name="Ellisse 18" transform="translate(812.08 319.6) rotate(3)" fill="#fff" stroke="#fff" stroke-width="1">
          <ellipse cx="12.5" cy="12" rx="12.5" ry="12" stroke="none"/>
          <ellipse cx="12.5" cy="12" rx="12" ry="11.5" fill="none"/>
        </g>
      </g>
      <circle id="Ellisse_19" data-name="Ellisse 19" cx="10" cy="10" r="10" transform="translate(1240 264)" fill="#fff" opacity="0.02"/>
      <g transform="matrix(1, -0.05, 0.05, 1, 244.3, -38.66)" filter="url(#Ellisse_20)">
        <g id="Ellisse_20-2" data-name="Ellisse 20" transform="translate(968.51 353.83) rotate(3)" fill="#fff" stroke="#fff" stroke-width="1">
          <circle cx="10" cy="10" r="10" stroke="none"/>
          <circle cx="10" cy="10" r="9.5" fill="none"/>
        </g>
      </g>
      <g transform="matrix(1, -0.05, 0.05, 1, 244.3, -38.66)" filter="url(#Ellisse_21)">
        <g id="Ellisse_21-2" data-name="Ellisse 21" transform="translate(80.89 94.02) rotate(3)" fill="#fff" stroke="#fff" stroke-width="1">
          <circle cx="15" cy="15" r="15" stroke="none"/>
          <circle cx="15" cy="15" r="14.5" fill="none"/>
        </g>
      </g>
      <g transform="matrix(1, -0.05, 0.05, 1, 244.3, -38.66)" filter="url(#Ellisse_22)">
        <g id="Ellisse_22-2" data-name="Ellisse 22" transform="translate(240.52 143.44) rotate(3)" fill="#fff" stroke="#fff" stroke-width="1">
          <circle cx="12.5" cy="12.5" r="12.5" stroke="none"/>
          <circle cx="12.5" cy="12.5" r="12" fill="none"/>
        </g>
      </g>
      <g transform="matrix(1, -0.05, 0.05, 1, 244.3, -38.66)" filter="url(#Ellisse_23)">
        <g id="Ellisse_23-2" data-name="Ellisse 23" transform="translate(483.32 268.32) rotate(3)" fill="#fff" stroke="#fff" stroke-width="1">
          <circle cx="12.5" cy="12.5" r="12.5" stroke="none"/>
          <circle cx="12.5" cy="12.5" r="12" fill="none"/>
        </g>
      </g>
      <g transform="matrix(1, -0.05, 0.05, 1, 244.3, -38.66)" filter="url(#Ellisse_24)">
        <g id="Ellisse_24-2" data-name="Ellisse 24" transform="translate(362.31 169.85) rotate(3)" fill="#fff" stroke="#fff" stroke-width="1">
          <circle cx="12.5" cy="12.5" r="12.5" stroke="none"/>
          <circle cx="12.5" cy="12.5" r="12" fill="none"/>
        </g>
      </g>
      <g transform="matrix(1, -0.05, 0.05, 1, 244.3, -38.66)" filter="url(#Ellisse_25)">
        <g id="Ellisse_25-2" data-name="Ellisse 25" transform="translate(652.57 325.26) rotate(3)" fill="#fff" stroke="#fff" stroke-width="1">
          <circle cx="10" cy="10" r="10" stroke="none"/>
          <circle cx="10" cy="10" r="9.5" fill="none"/>
        </g>
      </g>
      <g transform="matrix(1, -0.05, 0.05, 1, 244.3, -38.66)" filter="url(#Ellisse_26)">
        <g id="Ellisse_26-2" data-name="Ellisse 26" transform="translate(812.08 319.6) rotate(3)" fill="#fff" stroke="#fff" stroke-width="1">
          <ellipse cx="12.5" cy="12" rx="12.5" ry="12" stroke="none"/>
          <ellipse cx="12.5" cy="12" rx="12" ry="11.5" fill="none"/>
        </g>
      </g>
      <g transform="matrix(1, -0.05, 0.05, 1, 244.3, -38.66)" filter="url(#Ellisse_27)">
        <g id="Ellisse_27-2" data-name="Ellisse 27" transform="translate(968.51 353.83) rotate(3)" fill="#fff" stroke="#fff" stroke-width="1">
          <circle cx="10" cy="10" r="10" stroke="none"/>
          <circle cx="10" cy="10" r="9.5" fill="none"/>
        </g>
      </g>
      <g transform="matrix(1, -0.05, 0.05, 1, 244.3, -38.66)" filter="url(#Ellisse_28)">
        <g id="Ellisse_28-2" data-name="Ellisse 28" transform="translate(80.89 94.02) rotate(3)" fill="#fff" stroke="#fff" stroke-width="1">
          <circle cx="15" cy="15" r="15" stroke="none"/>
          <circle cx="15" cy="15" r="14.5" fill="none"/>
        </g>
      </g>
      <g transform="matrix(1, -0.05, 0.05, 1, 244.3, -38.66)" filter="url(#Ellisse_29)">
        <g id="Ellisse_29-2" data-name="Ellisse 29" transform="translate(240.52 143.44) rotate(3)" fill="#fff" stroke="#fff" stroke-width="1">
          <circle cx="12.5" cy="12.5" r="12.5" stroke="none"/>
          <circle cx="12.5" cy="12.5" r="12" fill="none"/>
        </g>
      </g>
      <g transform="matrix(1, -0.05, 0.05, 1, 244.3, -38.66)" filter="url(#Ellisse_30)">
        <g id="Ellisse_30-2" data-name="Ellisse 30" transform="translate(483.32 268.32) rotate(3)" fill="#fff" stroke="#fff" stroke-width="1">
          <circle cx="12.5" cy="12.5" r="12.5" stroke="none"/>
          <circle cx="12.5" cy="12.5" r="12" fill="none"/>
        </g>
      </g>
      <g transform="matrix(1, -0.05, 0.05, 1, 244.3, -38.66)" filter="url(#Ellisse_31)">
        <g id="Ellisse_31-2" data-name="Ellisse 31" transform="translate(362.31 169.85) rotate(3)" fill="#fff" stroke="#fff" stroke-width="1">
          <circle cx="12.5" cy="12.5" r="12.5" stroke="none"/>
          <circle cx="12.5" cy="12.5" r="12" fill="none"/>
        </g>
      </g>
      <g transform="matrix(1, -0.05, 0.05, 1, 244.3, -38.66)" filter="url(#Ellisse_32)">
        <g id="Ellisse_32-2" data-name="Ellisse 32" transform="translate(652.57 325.26) rotate(3)" fill="#fff" stroke="#fff" stroke-width="1">
          <circle cx="10" cy="10" r="10" stroke="none"/>
          <circle cx="10" cy="10" r="9.5" fill="none"/>
        </g>
      </g>
      <g transform="matrix(1, -0.05, 0.05, 1, 244.3, -38.66)" filter="url(#Ellisse_33)">
        <g id="Ellisse_33-2" data-name="Ellisse 33" transform="translate(812.08 319.6) rotate(3)" fill="#fff" stroke="#fff" stroke-width="1">
          <ellipse cx="12.5" cy="12" rx="12.5" ry="12" stroke="none"/>
          <ellipse cx="12.5" cy="12" rx="12" ry="11.5" fill="none"/>
        </g>
      </g>
      <g transform="matrix(1, -0.05, 0.05, 1, 244.3, -38.66)" filter="url(#Ellisse_34)">
        <g id="Ellisse_34-2" data-name="Ellisse 34" transform="translate(968.51 353.83) rotate(3)" fill="#fff" stroke="#fff" stroke-width="1">
          <circle cx="10" cy="10" r="10" stroke="none"/>
          <circle cx="10" cy="10" r="9.5" fill="none"/>
        </g>
      </g>
    </g>
  </g>
</svg>
