<svg xmlns="http://www.w3.org/2000/svg" width="90.984" height="89.23" viewBox="0 0 90.984 89.23">
  <g id="star_1_" data-name="star (1)" transform="translate(22.957 -13.951) rotate(21)">
    <path id="Tracciato_148" data-name="Tracciato 148" d="M117.008,39.493,94.63,37.418,85.74,16.776a1.793,1.793,0,0,0-3.294,0L73.557,37.418,51.178,39.493a1.793,1.793,0,0,0-1.018,3.133L67.045,57.459,62.1,79.384a1.793,1.793,0,0,0,2.665,1.936L84.093,69.846,103.418,81.32a1.793,1.793,0,0,0,2.665-1.936l-4.942-21.925,16.885-14.833A1.793,1.793,0,0,0,117.008,39.493Z" transform="translate(-41.257 -3.93)" fill="#ffdc64"/>
    <g id="Raggruppa_14" data-name="Raggruppa 14" transform="translate(0 10.971)">
      <path id="Tracciato_149" data-name="Tracciato 149" d="M94.058,12.135c1.141,1.585,4.361,8.39,6.2,12.356a.622.622,0,0,1-.992.714c-3.177-3-8.609-8.216-9.75-9.8a2.8,2.8,0,1,1,4.541-3.269Z" transform="translate(-74.1 -10.971)" fill="#fff082"/>
      <path id="Tracciato_150" data-name="Tracciato 150" d="M361.549,12.135c-1.141,1.585-4.361,8.39-6.2,12.356a.622.622,0,0,0,.992.714c3.177-3,8.609-8.217,9.75-9.8a2.8,2.8,0,0,0-4.541-3.269Z" transform="translate(-295.835 -10.971)" fill="#fff082"/>
      <path id="Tracciato_151" data-name="Tracciato 151" d="M429.005,284.88c-1.856-.605-9.318-1.606-13.656-2.154a.622.622,0,0,0-.379,1.162c3.827,2.114,10.444,5.706,12.3,6.311a2.8,2.8,0,0,0,1.735-5.319Z" transform="translate(-345.264 -237.249)" fill="#fff082"/>
      <path id="Tracciato_152" data-name="Tracciato 152" d="M1.931,284.88c1.856-.605,9.318-1.606,13.656-2.154a.622.622,0,0,1,.379,1.162C12.139,286,5.522,289.594,3.666,290.2a2.8,2.8,0,0,1-1.735-5.319Z" transform="translate(0 -237.249)" fill="#fff082"/>
      <path id="Tracciato_153" data-name="Tracciato 153" d="M239.794,413.86c0-1.953,1.363-9.357,2.186-13.651a.622.622,0,0,1,1.223,0c.823,4.294,2.186,11.7,2.186,13.651a2.8,2.8,0,0,1-5.595,0Z" transform="translate(-199.67 -334.657)" fill="#fff082"/>
    </g>
    <path id="Tracciato_154" data-name="Tracciato 154" d="M88.973,24.282,85.74,16.776a1.793,1.793,0,0,0-3.294,0L73.556,37.418,51.178,39.493a1.793,1.793,0,0,0-1.018,3.133L67.045,57.459,62.1,79.384a1.793,1.793,0,0,0,2.665,1.936l2.572-1.527A139.218,139.218,0,0,1,88.973,24.282Z" transform="translate(-41.257 -3.93)" fill="#ffc850"/>
  </g>
</svg>
