<svg xmlns="http://www.w3.org/2000/svg" width="179.338" height="156.588" viewBox="0 0 179.338 156.588">
  <path id="Stella_opacity" data-name="Stella opacity" d="M120.019,158.264h-31.1l-15.356-19.58a7,7,0,0,0-7.659-2.342L13,153.424a7.252,7.252,0,0,1-2.229.36,6.964,6.964,0,0,1-6.156-3.826,6.856,6.856,0,0,1,.5-7.212L36.2,98.388a6.976,6.976,0,0,0-.164-8.258L2.875,46.595a6.837,6.837,0,0,1-.726-7.311,6.939,6.939,0,0,1,6.21-3.951,7.3,7.3,0,0,1,2.084.312L63.726,51.531A7,7,0,0,0,71.4,48.924L103.442,4.587a6.781,6.781,0,0,1,5.608-2.912A7.277,7.277,0,0,1,113.841,3.5a6.876,6.876,0,0,1,2.27,4.966l1.771,54.674a7.008,7.008,0,0,0,4.9,6.453l53.057,16.625a6.912,6.912,0,0,1,3.654,2.629,7.178,7.178,0,0,1,.091,7.97A6.911,6.911,0,0,1,176,99.523L124.16,117.072a6.978,6.978,0,0,0-4.754,6.755l.615,34.437Z" transform="translate(-1.413 -1.676)" fill="#f7f" opacity="0.52"/>
</svg>
