<svg xmlns="http://www.w3.org/2000/svg" width="509.061" height="620.045" viewBox="0 0 509.061 620.045">
  <path id="CurveVector_opacity" d="M123.251,720.545h-.016a107.085,107.085,0,0,1-29.745-4.118A103.246,103.246,0,0,1,68.8,705.578c-13.142-7.944-25.111-19.018-35.574-32.916a168.5,168.5,0,0,1-11.548-17.579c-2.841-4.961-5.476-10.12-7.835-15.334a137.982,137.982,0,0,1-5.867-14.96c-.047-.163-1.156-4.14-2.523-16.734-.813-7.5-1.556-16.531-2.207-26.85-.814-12.9-1.486-27.858-2-44.448C-.056,494.506-.339,441.509.4,379.237c.929-77.819,3.475-170.475,7.567-275.395V100.5H509.061V364.7c-1.4,2.144-2.793,4.28-4.152,6.349-31.925,48.607-65.064,94.371-98.5,136.02C370.424,551.9,334.438,591.5,299.452,624.789c-9.262,8.812-18.505,17.133-27.473,24.734-8.709,7.382-17.4,14.287-25.832,20.526-8.179,6.051-16.333,11.636-24.233,16.6-7.651,4.806-15.281,9.163-22.677,12.951-7.149,3.66-14.269,6.885-21.162,9.585a184.546,184.546,0,0,1-19.691,6.5A137.09,137.09,0,0,1,123.251,720.545Z" transform="translate(0 -100.5)" fill="#f1ff77" opacity="0.28"/>
</svg>
