<svg id="person_undraw" xmlns="http://www.w3.org/2000/svg" width="316.357" height="279.742" viewBox="0 0 316.357 279.742">
  <path id="Tracciato_127" data-name="Tracciato 127" d="M744.356,665.483l-.421-.158c-.093-.035-9.306-3.565-13.621-11.568s-2.2-17.641-2.181-17.737l.1-.439.421.158c.093.035,9.305,3.565,13.621,11.568s2.2,17.641,2.181,17.737ZM731,653.384c3.649,6.767,10.929,10.236,12.774,11.028.351-1.977,1.451-9.972-2.2-16.733s-10.929-10.234-12.774-11.028C728.458,638.63,727.359,646.624,731,653.384Z" transform="translate(-442.013 -386.114)" fill="#3f3d56"/>
  <path id="Tracciato_128" data-name="Tracciato 128" d="M716.078,669.68c7.756,4.666,10.743,13.935,10.743,13.935s-9.588,1.7-17.344-2.963-10.743-13.935-10.743-13.935S708.321,665.014,716.078,669.68Z" transform="translate(-424.479 -404.845)" fill="#e247a6"/>
  <path id="Tracciato_129" data-name="Tracciato 129" d="M423.578,348.045a4.914,4.914,0,0,1,7.245-1.129,4.673,4.673,0,0,1,.475.453l19.315-2.812,1.075-14.525a4.213,4.213,0,0,1,8.4.621q0,.039-.006.077L458.2,351.111l-.009.045a3.817,3.817,0,0,1-3.687,2.677l-22.719-.392a4.617,4.617,0,0,1-.285.389,4.914,4.914,0,0,1-7.327.3q-.147-.15-.278-.31a4.93,4.93,0,0,1-.319-5.775Z" transform="translate(-256.846 -198.123)" fill="#ffb7b7"/>
  <path id="Tracciato_130" data-name="Tracciato 130" d="M511.423,664.59h-5.509l-2.621-21.249h8.131Z" transform="translate(-305.749 -390.828)" fill="#ffb7b7"/>
  <path id="Tracciato_131" data-name="Tracciato 131" d="M500.092,700.034H482.329v-.225a6.914,6.914,0,0,1,6.913-6.914h10.85Z" transform="translate(-293.013 -420.932)" fill="#2f2e41"/>
  <path id="Tracciato_132" data-name="Tracciato 132" d="M599.555,653.626l-5.214,1.778L585,636.14l7.7-2.625Z" transform="translate(-355.386 -384.859)" fill="#ffb7b7"/>
  <path id="Tracciato_133" data-name="Tracciato 133" d="M603.153,686.017l-16.812,5.734-.073-.213a6.914,6.914,0,0,1,4.312-8.776h0l10.268-3.5Z" transform="translate(-355.93 -412.649)" fill="#2f2e41"/>
  <path id="Tracciato_134" data-name="Tracciato 134" d="M511.576,222.2s-5.483-1.811-9.008,5.433a140.116,140.116,0,0,1-9.008,15.211l3.133.724s.783-5.07,2.742-5.795l-.783,6.519s23.5,7.606,34.074-.724l-.392-2.535a2.35,2.35,0,0,1,1.567,2.535l1.175-1.087a19.847,19.847,0,0,0-4.7-5.07c-2.314-1.9-3.109-5.52-3.382-7.782a9.068,9.068,0,0,0-2.345-5.128C522.307,221.987,518.039,219.318,511.576,222.2Z" transform="translate(-299.836 -134.226)" fill="#2f2e41"/>
  <circle id="Ellisse_35" data-name="Ellisse 35" cx="10.015" cy="10.015" r="10.015" transform="translate(203.746 93.248)" fill="#ffb7b7"/>
  <path id="Tracciato_135" data-name="Tracciato 135" d="M501.2,308.674l-1.821-.607s-3.642,1.517-3.642,4.249-.607,13.656-.607,13.656l8.194.91Z" transform="translate(-300.788 -187.15)" fill="#cbcbcb"/>
  <path id="Tracciato_136" data-name="Tracciato 136" d="M585.535,379.665a4.735,4.735,0,0,1-.108-6.18l-5.112-42.809a3.816,3.816,0,0,1,7.622-.393c0,.014,0,.028,0,.042l4.573,42.855a4.605,4.605,0,0,1,.457.535,4.766,4.766,0,0,1-1.069,6.655q-.079.057-.16.111h0a4.771,4.771,0,0,1-4.031.583,4.712,4.712,0,0,1-2.173-1.4Z" transform="translate(-352.537 -198.448)" fill="#ffb7b7"/>
  <path id="Tracciato_137" data-name="Tracciato 137" d="M581.7,324.563l8.194-.91s-.607-10.925-.607-13.656-3.642-4.249-3.642-4.249l-1.821.607Z" transform="translate(-353.378 -185.741)" fill="#cbcbcb"/>
  <path id="Tracciato_138" data-name="Tracciato 138" d="M501.94,392.3a65.488,65.488,0,0,0-6.98,28.239c0,15.477-.607,86.491-.607,86.491s9.1,4.249,14.567-.91l4.856-78.6L532.895,504.6s9.1,1.821,13.353-1.214l-8.194-53.716s-3.338-50.377-12.443-54.019S501.94,392.3,501.94,392.3Z" transform="translate(-300.318 -238.315)" fill="#2f2e41"/>
  <path id="Tracciato_139" data-name="Tracciato 139" d="M516.479,244.787a27.424,27.424,0,0,0,8.314-9.036s6.506,7.229,10.482,7.591.361-8.675.361-8.675l-7.229-1.807-6.868.723-5.422,3.615Z" transform="translate(-313.54 -141.461)" fill="#2f2e41"/>
  <path id="Tracciato_140" data-name="Tracciato 140" d="M531.14,301.082s.289-.155-16.994.474l-7.233,1.992-.961.265s.91,18.209,3.338,21.547,1.821,5.159,1.214,5.463-2.124-.3-1.214,1.214,2.124.607.91,1.517-1.821,4.249-1.821,4.249l26.706,3.642s.91-11.836,3.338-17.905a78.187,78.187,0,0,0,3.035-8.5L539.637,302.9Z" transform="translate(-307.364 -182.896)" fill="#cbcbcb"/>
  <path id="Tracciato_141" data-name="Tracciato 141" d="M225.059,66.421h-1.536V24.35A24.35,24.35,0,0,0,199.173,0H110.04a24.35,24.35,0,0,0-24.35,24.35V255.155a24.35,24.35,0,0,0,24.35,24.35h89.133a24.35,24.35,0,0,0,24.35-24.35h0V96.368h1.536Z" transform="translate(-52.057 0)" fill="#3f3d56"/>
  <path id="Tracciato_142" data-name="Tracciato 142" d="M228.742,34.327V264.793a18.168,18.168,0,0,1-18.152,18.185H121a18.172,18.172,0,0,1-18.185-18.159V34.327A18.172,18.172,0,0,1,120.97,16.143h10.89a8.638,8.638,0,0,0,8,11.9h51.065a8.638,8.638,0,0,0,8-11.9h11.634a18.168,18.168,0,0,1,18.185,18.152v.033Z" transform="translate(-62.457 -9.807)" fill="#fff"/>
  <path id="Tracciato_143" data-name="Tracciato 143" d="M228.741,68.424v-7.85H216.86V17.265a18.128,18.128,0,0,0-6.3-1.123H209.01V60.574H167.8V28.044h-7.85V60.574h-34.54V16.143H121a18.011,18.011,0,0,0-3.438.326V60.574H102.811v7.85h14.746V86.582l-14.746,8.513v9.067l14.746-8.513v54.024H102.811v7.85h14.746V235.63H102.811v7.85h14.746v39.172a18.02,18.02,0,0,0,3.438.326h4.412v-39.5h34.54v39.5h7.85v-39.5H209.01v39.5h1.546a18.128,18.128,0,0,0,6.3-1.123V243.48h11.881v-7.85H216.86V201.483h11.775v-7.85H216.86v-36.11h11.881v-7.85H216.86V101.787h11.881v-7.85H216.86V68.424Zm-79.733,0h0l-23.6,13.628h0V68.424Zm-23.6,22.691h0l34.54-19.943v78.5h-34.54Zm0,144.515V157.522h34.54V235.63Zm83.6,0H167.8V201.482H209.01Zm0-42H167.8v-36.11H209.01Zm0-43.96H167.8V101.787H209.01Zm0-55.735H167.8V68.424H209.01Z" transform="translate(-62.457 -9.807)" fill="#e5e5e5"/>
  <path id="Tracciato_144" data-name="Tracciato 144" d="M300.657,144.851c0,24.929-45.138,80.463-45.138,80.463s-45.138-55.534-45.138-80.463a45.138,45.138,0,1,1,90.276,0Z" transform="translate(-127.806 -60.575)" fill="#ff65c3"/>
  <path id="Tracciato_145" data-name="Tracciato 145" d="M310.762,168.4a26.69,26.69,0,1,1-26.69-26.69h0a26.678,26.678,0,0,1,26.69,26.666Z" transform="translate(-156.359 -86.09)" fill="#fff"/>
  <circle id="Ellisse_36" data-name="Ellisse 36" cx="9.943" cy="9.943" r="9.943" transform="translate(117.677 72.962)" fill="#e247a6"/>
  <path id="Tracciato_146" data-name="Tracciato 146" d="M317.522,252.342a26.719,26.719,0,0,1-28.68,0,14.915,14.915,0,0,1,28.679,0Z" transform="translate(-175.471 -146.726)" fill="#e247a6"/>
  <circle id="Ellisse_37" data-name="Ellisse 37" cx="12.168" cy="12.168" r="12.168" transform="translate(115.545 172.981)" fill="#e247a6"/>
  <path id="Tracciato_147" data-name="Tracciato 147" d="M315.965,711.5H.393a.393.393,0,0,1,0-.785H315.965a.393.393,0,0,1,0,.785Z" transform="translate(0 -431.756)" fill="#cbcbcb"/>
</svg>
