<svg xmlns="http://www.w3.org/2000/svg" xmlns:xlink="http://www.w3.org/1999/xlink" width="1194.948" height="1055.214" viewBox="0 0 1194.948 1055.214">
  <defs>
    <linearGradient id="linear-gradient" x1="0.329" y1="0.841" x2="0.906" y2="0.119" gradientUnits="objectBoundingBox">
      <stop offset="0" stop-color="#ff65c3"/>
      <stop offset="1" stop-color="#ffa1da"/>
    </linearGradient>
    <filter id="Ellisse_13" x="147.784" y="276.306" width="109.173" height="109.174" filterUnits="userSpaceOnUse">
      <feOffset dy="3" input="SourceAlpha"/>
      <feGaussianBlur stdDeviation="3" result="blur"/>
      <feFlood flood-color="#fff8f8" flood-opacity="0.769"/>
      <feComposite operator="in" in2="blur"/>
      <feComposite in="SourceGraphic"/>
    </filter>
    <filter id="Ellisse_14" x="304.745" y="325.574" width="103.919" height="103.919" filterUnits="userSpaceOnUse">
      <feOffset dy="3" input="SourceAlpha"/>
      <feGaussianBlur stdDeviation="3" result="blur-2"/>
      <feFlood flood-color="#fff8f8" flood-opacity="0.769"/>
      <feComposite operator="in" in2="blur-2"/>
      <feComposite in="SourceGraphic"/>
    </filter>
    <filter id="Ellisse_15" x="543.033" y="450.216" width="103.919" height="103.919" filterUnits="userSpaceOnUse">
      <feOffset dy="3" input="SourceAlpha"/>
      <feGaussianBlur stdDeviation="3" result="blur-3"/>
      <feFlood flood-color="#fff8f8" flood-opacity="0.769"/>
      <feComposite operator="in" in2="blur-3"/>
      <feComposite in="SourceGraphic"/>
    </filter>
    <filter id="Ellisse_16" x="424.302" y="351.868" width="103.919" height="103.919" filterUnits="userSpaceOnUse">
      <feOffset dy="3" input="SourceAlpha"/>
      <feGaussianBlur stdDeviation="3" result="blur-4"/>
      <feFlood flood-color="#fff8f8" flood-opacity="0.769"/>
      <feComposite operator="in" in2="blur-4"/>
      <feComposite in="SourceGraphic"/>
    </filter>
    <filter id="Ellisse_17" x="709.49" y="506.992" width="98.664" height="98.664" filterUnits="userSpaceOnUse">
      <feOffset dy="3" input="SourceAlpha"/>
      <feGaussianBlur stdDeviation="3" result="blur-5"/>
      <feFlood flood-color="#fff8f8" flood-opacity="0.769"/>
      <feComposite operator="in" in2="blur-5"/>
      <feComposite in="SourceGraphic"/>
    </filter>
    <filter id="Ellisse_18" x="865.859" y="501.179" width="103.866" height="102.92" filterUnits="userSpaceOnUse">
      <feOffset dy="3" input="SourceAlpha"/>
      <feGaussianBlur stdDeviation="3" result="blur-6"/>
      <feFlood flood-color="#fff8f8" flood-opacity="0.769"/>
      <feComposite operator="in" in2="blur-6"/>
      <feComposite in="SourceGraphic"/>
    </filter>
    <filter id="Ellisse_20" x="1019.539" y="535.258" width="98.664" height="98.664" filterUnits="userSpaceOnUse">
      <feOffset dy="3" input="SourceAlpha"/>
      <feGaussianBlur stdDeviation="3" result="blur-7"/>
      <feFlood flood-color="#fff8f8" flood-opacity="0.769"/>
      <feComposite operator="in" in2="blur-7"/>
      <feComposite in="SourceGraphic"/>
    </filter>
    <filter id="Ellisse_21" x="134.53" y="263.052" width="135.682" height="135.682" filterUnits="userSpaceOnUse">
      <feOffset dy="3" input="SourceAlpha"/>
      <feGaussianBlur stdDeviation="3" result="blur-8"/>
      <feFlood flood-color="#fff8f8" flood-opacity="0.769"/>
      <feComposite operator="in" in2="blur-8"/>
      <feComposite in="SourceGraphic"/>
    </filter>
    <filter id="Ellisse_22" x="291.49" y="312.32" width="130.427" height="130.427" filterUnits="userSpaceOnUse">
      <feOffset dy="3" input="SourceAlpha"/>
      <feGaussianBlur stdDeviation="3" result="blur-9"/>
      <feFlood flood-color="#fff8f8" flood-opacity="0.769"/>
      <feComposite operator="in" in2="blur-9"/>
      <feComposite in="SourceGraphic"/>
    </filter>
    <filter id="Ellisse_23" x="529.779" y="436.962" width="130.427" height="130.427" filterUnits="userSpaceOnUse">
      <feOffset dy="3" input="SourceAlpha"/>
      <feGaussianBlur stdDeviation="3" result="blur-10"/>
      <feFlood flood-color="#fff8f8" flood-opacity="0.769"/>
      <feComposite operator="in" in2="blur-10"/>
      <feComposite in="SourceGraphic"/>
    </filter>
    <filter id="Ellisse_24" x="411.048" y="338.613" width="130.427" height="130.427" filterUnits="userSpaceOnUse">
      <feOffset dy="3" input="SourceAlpha"/>
      <feGaussianBlur stdDeviation="3" result="blur-11"/>
      <feFlood flood-color="#fff8f8" flood-opacity="0.769"/>
      <feComposite operator="in" in2="blur-11"/>
      <feComposite in="SourceGraphic"/>
    </filter>
    <filter id="Ellisse_25" x="696.236" y="493.738" width="125.172" height="125.173" filterUnits="userSpaceOnUse">
      <feOffset dy="3" input="SourceAlpha"/>
      <feGaussianBlur stdDeviation="3" result="blur-12"/>
      <feFlood flood-color="#fff8f8" flood-opacity="0.769"/>
      <feComposite operator="in" in2="blur-12"/>
      <feComposite in="SourceGraphic"/>
    </filter>
    <filter id="Ellisse_26" x="852.604" y="487.924" width="130.375" height="129.429" filterUnits="userSpaceOnUse">
      <feOffset dy="3" input="SourceAlpha"/>
      <feGaussianBlur stdDeviation="3" result="blur-13"/>
      <feFlood flood-color="#fff8f8" flood-opacity="0.769"/>
      <feComposite operator="in" in2="blur-13"/>
      <feComposite in="SourceGraphic"/>
    </filter>
    <filter id="Ellisse_27" x="1006.285" y="522.003" width="125.172" height="125.173" filterUnits="userSpaceOnUse">
      <feOffset dy="3" input="SourceAlpha"/>
      <feGaussianBlur stdDeviation="3" result="blur-14"/>
      <feFlood flood-color="#fff8f8" flood-opacity="0.769"/>
      <feComposite operator="in" in2="blur-14"/>
      <feComposite in="SourceGraphic"/>
    </filter>
    <filter id="Ellisse_28" x="134.53" y="263.052" width="135.682" height="135.682" filterUnits="userSpaceOnUse">
      <feOffset dy="3" input="SourceAlpha"/>
      <feGaussianBlur stdDeviation="3" result="blur-15"/>
      <feFlood flood-color="#fff8f8" flood-opacity="0.769"/>
      <feComposite operator="in" in2="blur-15"/>
      <feComposite in="SourceGraphic"/>
    </filter>
    <filter id="Ellisse_29" x="291.49" y="312.32" width="130.427" height="130.427" filterUnits="userSpaceOnUse">
      <feOffset dy="3" input="SourceAlpha"/>
      <feGaussianBlur stdDeviation="3" result="blur-16"/>
      <feFlood flood-color="#fff8f8" flood-opacity="0.769"/>
      <feComposite operator="in" in2="blur-16"/>
      <feComposite in="SourceGraphic"/>
    </filter>
    <filter id="Ellisse_30" x="529.779" y="436.962" width="130.427" height="130.427" filterUnits="userSpaceOnUse">
      <feOffset dy="3" input="SourceAlpha"/>
      <feGaussianBlur stdDeviation="3" result="blur-17"/>
      <feFlood flood-color="#fff8f8" flood-opacity="0.769"/>
      <feComposite operator="in" in2="blur-17"/>
      <feComposite in="SourceGraphic"/>
    </filter>
    <filter id="Ellisse_31" x="411.048" y="338.613" width="130.427" height="130.427" filterUnits="userSpaceOnUse">
      <feOffset dy="3" input="SourceAlpha"/>
      <feGaussianBlur stdDeviation="3" result="blur-18"/>
      <feFlood flood-color="#fff8f8" flood-opacity="0.769"/>
      <feComposite operator="in" in2="blur-18"/>
      <feComposite in="SourceGraphic"/>
    </filter>
    <filter id="Ellisse_32" x="696.236" y="493.738" width="125.172" height="125.173" filterUnits="userSpaceOnUse">
      <feOffset dy="3" input="SourceAlpha"/>
      <feGaussianBlur stdDeviation="3" result="blur-19"/>
      <feFlood flood-color="#fff8f8" flood-opacity="0.769"/>
      <feComposite operator="in" in2="blur-19"/>
      <feComposite in="SourceGraphic"/>
    </filter>
    <filter id="Ellisse_33" x="852.604" y="487.924" width="130.375" height="129.429" filterUnits="userSpaceOnUse">
      <feOffset dy="3" input="SourceAlpha"/>
      <feGaussianBlur stdDeviation="3" result="blur-20"/>
      <feFlood flood-color="#fff8f8" flood-opacity="0.769"/>
      <feComposite operator="in" in2="blur-20"/>
      <feComposite in="SourceGraphic"/>
    </filter>
    <filter id="Ellisse_34" x="1006.285" y="522.003" width="125.172" height="125.173" filterUnits="userSpaceOnUse">
      <feOffset dy="3" input="SourceAlpha"/>
      <feGaussianBlur stdDeviation="3" result="blur-21"/>
      <feFlood flood-color="#fff8f8" flood-opacity="0.769"/>
      <feComposite operator="in" in2="blur-21"/>
      <feComposite in="SourceGraphic"/>
    </filter>
    <filter id="Ellisse_13-2" x="352.513" y="411.945" width="161.874" height="161.874" filterUnits="userSpaceOnUse">
      <feOffset dy="3" input="SourceAlpha"/>
      <feGaussianBlur stdDeviation="3" result="blur-22"/>
      <feFlood flood-color="#fff8f8" flood-opacity="0.769"/>
      <feComposite operator="in" in2="blur-22"/>
      <feComposite in="SourceGraphic"/>
    </filter>
    <filter id="Ellisse_15-2" x="685.538" y="386.912" width="154.984" height="154.984" filterUnits="userSpaceOnUse">
      <feOffset dy="3" input="SourceAlpha"/>
      <feGaussianBlur stdDeviation="3" result="blur-23"/>
      <feFlood flood-color="#fff8f8" flood-opacity="0.769"/>
      <feComposite operator="in" in2="blur-23"/>
      <feComposite in="SourceGraphic"/>
    </filter>
    <filter id="Ellisse_16-2" x="559.546" y="357.156" width="154.984" height="154.984" filterUnits="userSpaceOnUse">
      <feOffset dy="3" input="SourceAlpha"/>
      <feGaussianBlur stdDeviation="3" result="blur-24"/>
      <feFlood flood-color="#fff8f8" flood-opacity="0.769"/>
      <feComposite operator="in" in2="blur-24"/>
      <feComposite in="SourceGraphic"/>
    </filter>
    <filter id="Ellisse_17-2" x="817.164" y="363.912" width="148.094" height="148.094" filterUnits="userSpaceOnUse">
      <feOffset dy="3" input="SourceAlpha"/>
      <feGaussianBlur stdDeviation="3" result="blur-25"/>
      <feFlood flood-color="#fff8f8" flood-opacity="0.769"/>
      <feComposite operator="in" in2="blur-25"/>
      <feComposite in="SourceGraphic"/>
    </filter>
    <filter id="Ellisse_18-2" x="906.461" y="288.955" width="154.454" height="154.136" filterUnits="userSpaceOnUse">
      <feOffset dy="3" input="SourceAlpha"/>
      <feGaussianBlur stdDeviation="3" result="blur-26"/>
      <feFlood flood-color="#fff8f8" flood-opacity="0.769"/>
      <feComposite operator="in" in2="blur-26"/>
      <feComposite in="SourceGraphic"/>
    </filter>
    <filter id="Ellisse_20-2" x="1015.919" y="253.867" width="148.094" height="148.094" filterUnits="userSpaceOnUse">
      <feOffset dy="3" input="SourceAlpha"/>
      <feGaussianBlur stdDeviation="3" result="blur-27"/>
      <feFlood flood-color="#fff8f8" flood-opacity="0.769"/>
      <feComposite operator="in" in2="blur-27"/>
      <feComposite in="SourceGraphic"/>
    </filter>
    <filter id="Ellisse_21-2" x="329.728" y="389.159" width="207.445" height="207.445" filterUnits="userSpaceOnUse">
      <feOffset dy="3" input="SourceAlpha"/>
      <feGaussianBlur stdDeviation="3" result="blur-28"/>
      <feFlood flood-color="#fff8f8" flood-opacity="0.769"/>
      <feComposite operator="in" in2="blur-28"/>
      <feComposite in="SourceGraphic"/>
    </filter>
    <filter id="Ellisse_23-2" x="662.752" y="364.126" width="200.555" height="200.555" filterUnits="userSpaceOnUse">
      <feOffset dy="3" input="SourceAlpha"/>
      <feGaussianBlur stdDeviation="3" result="blur-29"/>
      <feFlood flood-color="#fff8f8" flood-opacity="0.769"/>
      <feComposite operator="in" in2="blur-29"/>
      <feComposite in="SourceGraphic"/>
    </filter>
    <filter id="Ellisse_24-2" x="536.76" y="334.37" width="200.555" height="200.555" filterUnits="userSpaceOnUse">
      <feOffset dy="3" input="SourceAlpha"/>
      <feGaussianBlur stdDeviation="3" result="blur-30"/>
      <feFlood flood-color="#fff8f8" flood-opacity="0.769"/>
      <feComposite operator="in" in2="blur-30"/>
      <feComposite in="SourceGraphic"/>
    </filter>
    <filter id="Ellisse_25-2" x="794.379" y="341.127" width="193.665" height="193.665" filterUnits="userSpaceOnUse">
      <feOffset dy="3" input="SourceAlpha"/>
      <feGaussianBlur stdDeviation="3" result="blur-31"/>
      <feFlood flood-color="#fff8f8" flood-opacity="0.769"/>
      <feComposite operator="in" in2="blur-31"/>
      <feComposite in="SourceGraphic"/>
    </filter>
    <filter id="Ellisse_26-2" x="883.676" y="266.17" width="200.025" height="199.707" filterUnits="userSpaceOnUse">
      <feOffset dy="3" input="SourceAlpha"/>
      <feGaussianBlur stdDeviation="3" result="blur-32"/>
      <feFlood flood-color="#fff8f8" flood-opacity="0.769"/>
      <feComposite operator="in" in2="blur-32"/>
      <feComposite in="SourceGraphic"/>
    </filter>
    <filter id="Ellisse_27-2" x="993.134" y="231.081" width="193.665" height="193.665" filterUnits="userSpaceOnUse">
      <feOffset dy="3" input="SourceAlpha"/>
      <feGaussianBlur stdDeviation="3" result="blur-33"/>
      <feFlood flood-color="#fff8f8" flood-opacity="0.769"/>
      <feComposite operator="in" in2="blur-33"/>
      <feComposite in="SourceGraphic"/>
    </filter>
    <filter id="Ellisse_28-2" x="329.728" y="389.159" width="207.445" height="207.445" filterUnits="userSpaceOnUse">
      <feOffset dy="3" input="SourceAlpha"/>
      <feGaussianBlur stdDeviation="3" result="blur-34"/>
      <feFlood flood-color="#fff8f8" flood-opacity="0.769"/>
      <feComposite operator="in" in2="blur-34"/>
      <feComposite in="SourceGraphic"/>
    </filter>
    <filter id="Ellisse_30-2" x="662.752" y="364.126" width="200.555" height="200.555" filterUnits="userSpaceOnUse">
      <feOffset dy="3" input="SourceAlpha"/>
      <feGaussianBlur stdDeviation="3" result="blur-35"/>
      <feFlood flood-color="#fff8f8" flood-opacity="0.769"/>
      <feComposite operator="in" in2="blur-35"/>
      <feComposite in="SourceGraphic"/>
    </filter>
    <filter id="Ellisse_31-2" x="536.76" y="334.37" width="200.555" height="200.555" filterUnits="userSpaceOnUse">
      <feOffset dy="3" input="SourceAlpha"/>
      <feGaussianBlur stdDeviation="3" result="blur-36"/>
      <feFlood flood-color="#fff8f8" flood-opacity="0.769"/>
      <feComposite operator="in" in2="blur-36"/>
      <feComposite in="SourceGraphic"/>
    </filter>
    <filter id="Ellisse_32-2" x="794.379" y="341.127" width="193.665" height="193.665" filterUnits="userSpaceOnUse">
      <feOffset dy="3" input="SourceAlpha"/>
      <feGaussianBlur stdDeviation="3" result="blur-37"/>
      <feFlood flood-color="#fff8f8" flood-opacity="0.769"/>
      <feComposite operator="in" in2="blur-37"/>
      <feComposite in="SourceGraphic"/>
    </filter>
    <filter id="Ellisse_33-2" x="883.676" y="266.17" width="200.025" height="199.707" filterUnits="userSpaceOnUse">
      <feOffset dy="3" input="SourceAlpha"/>
      <feGaussianBlur stdDeviation="3" result="blur-38"/>
      <feFlood flood-color="#fff8f8" flood-opacity="0.769"/>
      <feComposite operator="in" in2="blur-38"/>
      <feComposite in="SourceGraphic"/>
    </filter>
    <filter id="Ellisse_34-2" x="993.134" y="231.081" width="193.665" height="193.665" filterUnits="userSpaceOnUse">
      <feOffset dy="3" input="SourceAlpha"/>
      <feGaussianBlur stdDeviation="3" result="blur-39"/>
      <feFlood flood-color="#fff8f8" flood-opacity="0.769"/>
      <feComposite operator="in" in2="blur-39"/>
      <feComposite in="SourceGraphic"/>
    </filter>
  </defs>
  <g id="Section" transform="translate(-99.52 252.778)">
    <path id="Sottrazione_13" data-name="Sottrazione 13" d="M1180.98,812.436v0c-41.057-14.635-77.286-26.1-110.759-35.064a890.554,890.554,0,0,0-96.287-20.412C906.2,746.585,840.647,744.9,749.921,742.577h-.14l-.084,0h-.008l-.25-.006h-.03l-.188-.005c-30.662-.787-65.414-1.679-103.961-3.026-12.837-.448-25.421-1.384-37.4-2.782-11.577-1.35-22.908-3.168-33.678-5.4-10.379-2.155-20.522-4.759-30.146-7.741a281.8,281.8,0,0,1-26.81-9.794,249.846,249.846,0,0,1-23.667-11.559,227.543,227.543,0,0,1-20.723-13.041,206.893,206.893,0,0,1-67.894-80.766,231.181,231.181,0,0,1-16.661-48.38,233.852,233.852,0,0,1-5.267-35.944c-.555-8.571-.325-14.025-.322-14.076.06-.855,1.467-21.3.538-51.472-.556-18.04-1.824-36.006-3.767-53.4a553.933,553.933,0,0,0-10.4-62.127c-11.385-49.587-29.069-90.386-52.558-121.262-29.361-38.593-67.926-61.7-114.623-68.671-12.467-1.862-24.62-4.264-36.12-7.14a321.01,321.01,0,0,1-31.769-9.677,275.869,275.869,0,0,1-27.7-11.8,243.52,243.52,0,0,1-23.9-13.511C56.306,94.2,35.018,73.049,19.108,48.114A200.167,200.167,0,0,1,2.983,17.175C1.937,14.652.934,12.082,0,9.537H1180.98v802.9Z" transform="translate(99.52 -10)" fill="url(#linear-gradient)"/>
    <path id="CurveVector_opacity" d="M123.251,720.545h-.016a107.085,107.085,0,0,1-29.745-4.118A103.246,103.246,0,0,1,68.8,705.578c-13.142-7.944-25.111-19.018-35.574-32.916a168.5,168.5,0,0,1-11.548-17.579c-2.841-4.961-5.476-10.12-7.835-15.334a137.982,137.982,0,0,1-5.867-14.96c-.047-.163-1.156-4.14-2.523-16.734-.813-7.5-1.556-16.531-2.207-26.85-.814-12.9-1.486-27.858-2-44.448C-.056,494.506-.339,441.509.4,379.237c.929-77.819,3.475-170.475,7.567-275.395V100.5H509.061V364.7c-1.4,2.144-2.793,4.28-4.152,6.349-31.925,48.607-65.064,94.371-98.5,136.02C370.424,551.9,334.438,591.5,299.452,624.789c-9.262,8.812-18.505,17.133-27.473,24.734-8.709,7.382-17.4,14.287-25.832,20.526-8.179,6.051-16.333,11.636-24.233,16.6-7.651,4.806-15.281,9.163-22.677,12.951-7.149,3.66-14.269,6.885-21.162,9.585a184.546,184.546,0,0,1-19.691,6.5A137.09,137.09,0,0,1,123.251,720.545Z" transform="translate(770.939 -100.5)" fill="#f1ff77" opacity="0.28"/>
    <g id="Party_Pepole" data-name="Party Pepole" transform="translate(418.991 212.867)">
      <g id="Layer_2" transform="translate(303.557 161.133)">
        <g id="Raggruppa_6" data-name="Raggruppa 6" transform="translate(177.022 1.432)">
          <path id="Tracciato_33" data-name="Tracciato 33" d="M458.187,221.1l-8.541,33.929c-10.97,14.026-14.5,47.72-15.2,54.223a8.635,8.635,0,0,1-5.485,7.209h0a8.276,8.276,0,0,1-6.269-.078c-.078,0-.157-.078-.235-.078a7.741,7.741,0,0,1-2.507-1.646,8.7,8.7,0,0,1-2.664-7.366C423.4,256.674,458.187,221.1,458.187,221.1Z" transform="translate(-397.831 -133.099)" fill="#222827"/>
          <path id="Tracciato_34" data-name="Tracciato 34" d="M458.462,221.1l-8.541,33.929c-10.97,14.026-14.5,47.72-15.2,54.223a8.635,8.635,0,0,1-5.485,7.209h0a8.276,8.276,0,0,1-6.269-.078c-.078,0-.157-.078-.235-.078a7.74,7.74,0,0,1-2.507-1.646,8.293,8.293,0,0,1-1.724-2.272.243.243,0,0,1,.157.078,8.66,8.66,0,0,0,6.269.078h0a8.505,8.505,0,0,0,5.485-7.209c.705-6.5,4.231-40.2,15.2-54.223l5.328-21.156C455.406,224.234,458.462,221.1,458.462,221.1Z" transform="translate(-398.106 -133.099)" fill="#181c1b"/>
          <path id="Tracciato_35" data-name="Tracciato 35" d="M435.2,498.574s.784,10.97,4.937,18.492c0,0,4.858,2.194,8.854-2.742,0,0-3.84-6.425-4.78-17.317C444.289,496.929,438.334,495.675,435.2,498.574Z" transform="translate(-401.72 -192.74)" fill="#fdd2d9"/>
          <path id="Tracciato_36" data-name="Tracciato 36" d="M445.122,519.1c-4.075,5.015-8.854,2.742-8.854,2.742A7.757,7.757,0,0,1,426,525.6a6.386,6.386,0,0,0-2.429-.47,6.571,6.571,0,0,0-6.582,6.582v.705a5.1,5.1,0,0,0,1.332,4,6.414,6.414,0,0,0,3.839,1.724h.235a5.93,5.93,0,0,0,1.175.078h.157a21.371,21.371,0,0,0,3.213-.235,114.586,114.586,0,0,0,16.063-4,9.721,9.721,0,0,0,3.918-2.429C450.842,527.484,448.413,522.313,445.122,519.1Z" transform="translate(-397.773 -197.594)" fill="#222827"/>
          <path id="Tracciato_37" data-name="Tracciato 37" d="M504.6,486.2s3.683,10.343,9.716,16.455c0,0,5.25.862,7.757-5.015,0,0-5.407-5.172-9.168-15.436C512.906,482.2,506.794,482.592,504.6,486.2Z" transform="translate(-416.74 -189.608)" fill="#fdd2d9"/>
          <path id="Tracciato_38" data-name="Tracciato 38" d="M520.291,501.9c-2.586,5.955-7.757,5.015-7.757,5.015a6.527,6.527,0,0,1-.313,1.175,7.971,7.971,0,0,1-8.619,5.172,6.613,6.613,0,0,0-6.974,8.306,5.413,5.413,0,0,0,.235.627,4.917,4.917,0,0,0,2.351,3.448,6.917,6.917,0,0,0,4.153.705h.235a3.144,3.144,0,0,0,1.175-.235c.078,0,.078,0,.157-.078a11.161,11.161,0,0,0,2.978-1.1,100.259,100.259,0,0,0,14.418-8.149,9.966,9.966,0,0,0,3.134-3.369C528.049,508.482,524.366,504.094,520.291,501.9Z" transform="translate(-414.958 -193.871)" fill="#222827"/>
          <path id="Tracciato_39" data-name="Tracciato 39" d="M496.7,164.168a6.531,6.531,0,0,1,4.545-3.918,4.231,4.231,0,0,1,4.075.862,3.848,3.848,0,0,1,1.019,2.743,7.437,7.437,0,0,1-9.638,7.6Z" transform="translate(-415.031 -119.89)" fill="#fdd2d9"/>
          <path id="Tracciato_40" data-name="Tracciato 40" d="M470.823,199.4a109.414,109.414,0,0,0,0,15.123s4.466,4,10.735,0c0,0-2.507-4.7-1.41-16.925Z" transform="translate(-409.37 -128.013)" fill="#fdd2d9"/>
          <path id="Tracciato_41" data-name="Tracciato 41" d="M450.67,132.932s-.078,20.765-1.41,31.421a18.107,18.107,0,0,0,10.813,18.962,28.3,28.3,0,0,0,7.6,1.959,18.039,18.039,0,0,0,19.9-17.865V131.6s-17.239,5.8-30.481.235C457.1,131.913,453.491,135.283,450.67,132.932Z" transform="translate(-404.732 -113.728)" fill="#fdd2d9"/>
          <path id="Tracciato_42" data-name="Tracciato 42" d="M489.189,149.074s-.157-9.951.392-18.179a9.633,9.633,0,0,0-8.7-10.186c-10.03-.94-24.761-3.213-31.578-8.933a12.22,12.22,0,0,0-12.224-2.194c-.235.078-.392.157-.627.235a9.4,9.4,0,0,0-4.858,11.127c1.489,5.172,6.034,13.4,19.9,8.7,0,0,.862,3.839,6.269,1.254,0,0,12.145,5.642,24.134-1.41,0,0-2.821,15.045,1.959,21.7A5.585,5.585,0,0,1,489.189,149.074Z" transform="translate(-400.859 -108.792)" fill="#222827"/>
          <path id="Tracciato_43" data-name="Tracciato 43" d="M463.589,219.2a9.419,9.419,0,0,0,10.735,0s5.093,4.466,5.877,17.474c0,0-1.019,44.82,3.6,67.7a9.463,9.463,0,0,1-6.582,10.97,50.88,50.88,0,0,1-34.32-1.41,9.536,9.536,0,0,1-5.25-11.91c3.918-10.97,10.343-32.2,10.657-53.753a41.469,41.469,0,0,1,4.545-18.649C455.361,225,458.809,220.61,463.589,219.2Z" transform="translate(-402.135 -132.687)" fill="#222827"/>
          <g id="Raggruppa_5" data-name="Raggruppa 5" transform="translate(0 45.295)">
            <path id="Tracciato_44" data-name="Tracciato 44" d="M405.066,200.165h0a7.379,7.379,0,0,1-6.19-8.463l3.526-22.8,14.653,2.272-3.526,22.8A7.522,7.522,0,0,1,405.066,200.165Z" transform="translate(-393.839 -167.096)" fill="#fff"/>
            <ellipse id="Ellisse_5" data-name="Ellisse 5" cx="1.881" cy="7.366" rx="1.881" ry="7.366" transform="translate(8.226 3.718) rotate(-81.28)" fill="#fff"/>
            <ellipse id="Ellisse_6" data-name="Ellisse 6" cx="1.881" cy="7.366" rx="1.881" ry="7.366" transform="translate(0 57.448) rotate(-81.28)" fill="#fff"/>
            <rect id="Rettangolo_16" data-name="Rettangolo 16" width="2.429" height="23.977" transform="translate(10.062 32.087) rotate(8.72)" fill="#fff"/>
          </g>
          <path id="Tracciato_45" data-name="Tracciato 45" d="M420.376,204.585a47.242,47.242,0,0,1-1.019-11.754c.078-.862-.157-1.332-.078-2.194a4.558,4.558,0,0,0-.313-2.507,2.023,2.023,0,0,0-1.959-1.332c-1.175.078-1.8,1.41-1.8,2.586s.47,2.272.47,3.448a7.718,7.718,0,0,1-2.351,4.937,19.862,19.862,0,0,0-3.369,4.388c-.784,1.724-.784,3.918.627,5.172C410.581,207.328,414.656,202.391,420.376,204.585Z" transform="translate(-396.143 -125.673)" fill="#fdd2d9"/>
          <path id="Tracciato_46" data-name="Tracciato 46" d="M401.755,184.281a7.31,7.31,0,0,0,1.959,4.231,3.773,3.773,0,0,1,1.175,1.567,1.65,1.65,0,0,1-2.664,1.724,3.65,3.65,0,0,1,.47,1.567,1.318,1.318,0,0,1-.705,1.332,1.008,1.008,0,0,1-.94-.078,5.27,5.27,0,0,1-.862-.549,3.143,3.143,0,0,1,.235,1.489,1.252,1.252,0,0,1-.94,1.1,1.446,1.446,0,0,1-1.332-.392,2.824,2.824,0,0,1-.784-1.175,12.6,12.6,0,0,1-1.175-4.7,4.227,4.227,0,0,1,.235-1.959,1.678,1.678,0,0,1,1.489-1.175,2.894,2.894,0,0,1,1.175-2.351A3.511,3.511,0,0,1,401.755,184.281Z" transform="translate(-393.271 -125.115)" fill="#fdd2d9"/>
          <path id="Tracciato_47" data-name="Tracciato 47" d="M436.522,336.8s-18.492,81.883-10.657,121.924a10.231,10.231,0,0,0,9.011,8.306c.157,0,.392.078.548.078a10.258,10.258,0,0,0,10.97-12.067c-2.742-15.75-5.642-49.13,6.269-95.988,0,0,4.936,64.1,22.8,92.932a11.813,11.813,0,0,0,17,3.526c.078-.078.157-.157.235-.157a11.752,11.752,0,0,0,3.369-14.731c-7.052-14.183-24.134-53.753-21.783-99.827C474.369,340.8,453.134,347.613,436.522,336.8Z" transform="translate(-399.281 -158.139)" fill="#394db4"/>
          <path id="Tracciato_48" data-name="Tracciato 48" d="M428.528,363.067a1.658,1.658,0,0,1-1.724,1.1c-.862-.157-1.332-1.019-1.646-1.8-.392-.94-.784-1.8-1.175-2.743a30.107,30.107,0,0,0-1.567,10.892,3.935,3.935,0,0,1-.157,1.646,1.24,1.24,0,0,1-1.254.862,1.2,1.2,0,0,1-.862-.862,3.45,3.45,0,0,1-.157-1.254,2.634,2.634,0,0,1-1.567,2.116,1.84,1.84,0,0,1-1.959-.549,3.092,3.092,0,0,1-.784-1.959,10.465,10.465,0,0,1,.078-2.194,1.667,1.667,0,0,1-2.429-.313,4.9,4.9,0,0,1-.627-2.978,20.681,20.681,0,0,1,5.25-13.086,45.9,45.9,0,0,1,1.1-11.44,7.741,7.741,0,0,0,2.507,1.646c.078,0,.157.078.235.078a8.661,8.661,0,0,0,6.269.078c-.313,1.175-1.724,7.444-1.332,11.832.235,2.429,1.8,4.466,2.037,6.817A6.276,6.276,0,0,1,428.528,363.067Z" transform="translate(-396.851 -158.94)" fill="#fdd2d9"/>
          <path id="Tracciato_49" data-name="Tracciato 49" d="M477.457,316.448a50.879,50.879,0,0,1-34.32-1.41,9.217,9.217,0,0,1-4.936-4.78,51.356,51.356,0,0,0,30.716.078,9.421,9.421,0,0,0,6.582-10.97c-2.507-12.3-3.369-30.873-3.6-45.447-.157-9.481-.078-17.239,0-20.53A49.726,49.726,0,0,0,477.3,224.3a35.819,35.819,0,0,1,3.213,13.556s-.078,2.194-.078,5.8h0c-.078,12.851.078,44.037,3.683,61.824A9.587,9.587,0,0,1,477.457,316.448Z" transform="translate(-402.37 -133.791)" fill="#181c1b"/>
          <path id="Tracciato_50" data-name="Tracciato 50" d="M475.094,238.333a11.107,11.107,0,0,1-.627,1.41h0a7.44,7.44,0,0,1-.784,1.332A48.336,48.336,0,0,1,466,250.009a46.134,46.134,0,0,1-14.81,9.4,19.626,19.626,0,0,1-21-5.015c-7.052-7.522-17.082-21.235-19.511-40.041a6.838,6.838,0,0,1,4-7.131c.078,0,.157-.078.235-.078a6.906,6.906,0,0,1,9.56,6.112c.392,8.071,3.134,20.765,12.616,30.716,2.429,2.586,5.485,4,8.854,2.507A56.892,56.892,0,0,0,466,229.557a49.723,49.723,0,0,0,5.407-9.089C471.254,220.468,478.542,228.931,475.094,238.333Z" transform="translate(-396.402 -129.959)" fill="#222827"/>
          <path id="Tracciato_51" data-name="Tracciato 51" d="M475.8,236.212a16.735,16.735,0,0,1-.705,2.664,11.1,11.1,0,0,1-.627,1.41h0a7.438,7.438,0,0,1-.784,1.332A48.333,48.333,0,0,1,466,250.551a46.134,46.134,0,0,1-14.81,9.4,19.626,19.626,0,0,1-21-5.015c-7.052-7.522-17.082-21.235-19.511-40.041a6.647,6.647,0,0,1,2.037-5.8.994.994,0,0,0,.078.47c2.429,18.806,12.38,32.44,19.511,40.041a19.483,19.483,0,0,0,21,5.015A49.9,49.9,0,0,0,475.8,236.29C475.718,236.368,475.8,236.29,475.8,236.212Z" transform="translate(-396.399 -130.501)" fill="#181c1b"/>
          <path id="Tracciato_52" data-name="Tracciato 52" d="M504.553,456.458c-.078.078-.157.157-.235.157a11.478,11.478,0,0,1-10.578,1.567,12.081,12.081,0,0,0,2.978-1.567c.078-.078.157-.157.235-.157a11.752,11.752,0,0,0,3.369-14.731c-6.974-14.026-23.742-52.813-21.862-98.26a52.986,52.986,0,0,0,7.679-1.567c-2.351,46.074,14.731,85.644,21.783,99.827A11.847,11.847,0,0,1,504.553,456.458Z" transform="translate(-411.051 -159.243)" fill="#303f8e"/>
          <path id="Tracciato_53" data-name="Tracciato 53" d="M448.163,460.481a10.258,10.258,0,0,1-10.97,12.067c-.235,0-.392-.078-.548-.078a10.26,10.26,0,0,1-4.545-1.645,10.265,10.265,0,0,0,10.03-12.067c-2.742-15.515-5.563-48.346,5.877-94.264a3.2,3.2,0,0,1,3.6-2.507,3.894,3.894,0,0,1,2.821,2.507C441.425,414.172,445.734,446.769,448.163,460.481Z" transform="translate(-401.049 -163.579)" fill="#303f8e"/>
          <path id="Tracciato_54" data-name="Tracciato 54" d="M481.7,129.992h0c-11.91,7.052-24.134,1.41-24.134,1.41-5.407,2.664-6.269-1.175-6.269-1.175-13.869,4.7-18.414-3.526-19.9-8.7a9.491,9.491,0,0,1,3.056-10.03c-.705,18.962,33.615,16.533,44.585,15.28A2.461,2.461,0,0,1,481.7,129.992Z" transform="translate(-400.811 -109.378)" fill="#181c1b"/>
        </g>
        <g id="Raggruppa_8" data-name="Raggruppa 8" transform="translate(66.802)">
          <path id="Tracciato_55" data-name="Tracciato 55" d="M375.275,303.268a8.521,8.521,0,0,1-2.507,5.172,9.5,9.5,0,0,1-2.507,1.724c-.078,0-.157.078-.235.078a8.308,8.308,0,0,1-6.269.235h0a8.789,8.789,0,0,1-5.72-7.052c-.862-6.5-5.25-40.041-16.533-53.831L332.1,215.9s2.272,2.194,5.8,6.269l6.19,22.175c11.283,13.791,15.75,47.328,16.612,53.831a8.551,8.551,0,0,0,5.72,7.052h0a8.308,8.308,0,0,0,6.269-.235c.078,0,.157-.078.235-.078A7.982,7.982,0,0,0,375.275,303.268Z" transform="translate(-269.187 -130.541)" fill="#303f8e"/>
          <path id="Tracciato_56" data-name="Tracciato 56" d="M376.855,305a7.405,7.405,0,0,1-2.429,1.646c-.078,0-.157.078-.235.078a8.307,8.307,0,0,1-6.269.235h0a8.679,8.679,0,0,1-5.72-7.052c-.862-6.5-5.25-40.041-16.612-53.831L339.4,223.9c10.422,12.145,31.813,41.138,37.376,78.906A6.884,6.884,0,0,1,376.855,305Z" transform="translate(-270.767 -132.273)" fill="#3c50b8"/>
          <path id="Tracciato_57" data-name="Tracciato 57" d="M372.392,356.824a1.759,1.759,0,0,0,1.724,1.1c.862-.157,1.254-1.019,1.645-1.8.392-.94.784-1.8,1.1-2.743a30.152,30.152,0,0,1,1.8,10.813,5.866,5.866,0,0,0,.157,1.646c.235.47.705.94,1.254.784a1.348,1.348,0,0,0,.862-.862,3.391,3.391,0,0,0,.078-1.254c.313.94.705,1.8,1.646,2.037a1.877,1.877,0,0,0,1.959-.627,3.6,3.6,0,0,0,.784-1.959,9.627,9.627,0,0,0-.157-2.116,1.612,1.612,0,0,0,2.429-.392,4.859,4.859,0,0,0,.549-2.978,20.434,20.434,0,0,0-5.563-12.929,47.331,47.331,0,0,0-1.332-11.44,9.5,9.5,0,0,1-2.507,1.724c-.078,0-.157.078-.235.078a8.308,8.308,0,0,1-6.269.235c.313,1.175,1.959,7.444,1.567,11.754-.235,2.429-1.646,4.466-1.881,6.9A18.649,18.649,0,0,0,372.392,356.824Z" transform="translate(-277.823 -156.123)" fill="#fdd2d9"/>
          <path id="Tracciato_58" data-name="Tracciato 58" d="M304.434,164.168a6.531,6.531,0,0,0-4.545-3.918,4.231,4.231,0,0,0-4.075.862,3.848,3.848,0,0,0-1.019,2.743,7.437,7.437,0,0,0,9.638,7.6Z" transform="translate(-261.11 -118.458)" fill="#fdd2d9"/>
          <path id="Tracciato_59" data-name="Tracciato 59" d="M330.035,199.4a109.414,109.414,0,0,1,0,15.123s-4.466,4-10.735,0c0,0,2.507-4.7,1.41-16.925Z" transform="translate(-266.417 -126.581)" fill="#fdd2d9"/>
          <path id="Tracciato_60" data-name="Tracciato 60" d="M342.506,132.932s.078,20.765,1.41,31.421A18.107,18.107,0,0,1,333.1,183.316a28.3,28.3,0,0,1-7.6,1.959,18.039,18.039,0,0,1-19.9-17.865V131.6s17.239,5.8,30.481.235C336.081,131.913,339.764,135.283,342.506,132.932Z" transform="translate(-263.452 -112.296)" fill="#fdd2d9"/>
          <path id="Tracciato_61" data-name="Tracciato 61" d="M340.625,313.934a50.879,50.879,0,0,1-34.32,1.41,9.954,9.954,0,0,1-2.9-1.41h0a9.343,9.343,0,0,1-3.761-9.56c4.7-22.88,9.4-67.7,9.4-67.7.862-13.007,5.877-17.474,5.877-17.474a9.564,9.564,0,0,0,10.813,0c4.78,1.41,8.228,5.8,10.657,10.422a41.468,41.468,0,0,1,4.545,18.649c.313,21.548,1.019,42.783,4.937,53.753A9.536,9.536,0,0,1,340.625,313.934Z" transform="translate(-262.12 -131.255)" fill="#394db4"/>
          <g id="Raggruppa_7" data-name="Raggruppa 7" transform="translate(94.421 29.858)">
            <path id="Tracciato_62" data-name="Tracciato 62" d="M390.025,178.586h0a7.4,7.4,0,0,0,4.545-9.4L387.048,147.4,373.1,152.258l7.522,21.783A7.4,7.4,0,0,0,390.025,178.586Z" transform="translate(-372.482 -145.574)" fill="#fff"/>
            <ellipse id="Ellisse_7" data-name="Ellisse 7" cx="7.366" cy="1.881" rx="7.366" ry="1.881" transform="translate(0 4.822) rotate(-19.105)" fill="#fff"/>
            <ellipse id="Ellisse_8" data-name="Ellisse 8" cx="7.366" cy="1.881" rx="7.366" ry="1.881" transform="translate(17.796 56.225) rotate(-19.105)" fill="#fff"/>
            <rect id="Rettangolo_17" data-name="Rettangolo 17" width="2.429" height="23.977" transform="translate(26.323 54.581) rotate(160.895)" fill="#fff"/>
          </g>
          <path id="Tracciato_63" data-name="Tracciato 63" d="M378.018,185.921a44.769,44.769,0,0,0-1.175-11.754c-.235-.784-.078-1.332-.313-2.116a5.387,5.387,0,0,1-.157-2.507,2.093,2.093,0,0,1,1.645-1.646c1.175-.078,2.037,1.1,2.272,2.194s0,2.351.157,3.448c.313,1.8,1.724,3.291,3.213,4.466a20.861,20.861,0,0,1,4.153,3.683c1.1,1.489,1.489,3.761.313,5.172C388.126,186.861,383.268,182.787,378.018,185.921Z" transform="translate(-278.747 -120.152)" fill="#fdd2d9"/>
          <path id="Tracciato_64" data-name="Tracciato 64" d="M394.41,161.7a7.413,7.413,0,0,1-3.134,3.448,4.88,4.88,0,0,0-1.645,1.175,1.65,1.65,0,0,0,.157,1.959,1.844,1.844,0,0,0,1.959.47,3.776,3.776,0,0,0-.94,1.332,1.471,1.471,0,0,0,.235,1.489,1.314,1.314,0,0,0,.94.235,4.133,4.133,0,0,0,.94-.235,2.128,2.128,0,0,0-.627,1.332c0,.549.078,1.1.548,1.332a1.754,1.754,0,0,0,1.41.078,3.19,3.19,0,0,0,1.1-.94,13.381,13.381,0,0,0,2.507-4.153,4.182,4.182,0,0,0,.392-1.959,2.029,2.029,0,0,0-1.019-1.567,2.792,2.792,0,0,0-.47-2.586A3.258,3.258,0,0,0,394.41,161.7Z" transform="translate(-281.584 -118.811)" fill="#fdd2d9"/>
          <path id="Tracciato_65" data-name="Tracciato 65" d="M302.561,152.048c.392,1.489,2.978-2.821,3.526-4.31a6.773,6.773,0,0,0-.157-4.31,18.042,18.042,0,0,0-2.037-3.839,6.34,6.34,0,0,0,3.526-3.448,5.729,5.729,0,0,0-.078-4.545,6.831,6.831,0,0,0,8.854,1.175,19.349,19.349,0,0,0,3.134,1.567,7.045,7.045,0,0,0,3.6-.157c.94-.313,1.567-1.175,2.507-1.489.862-.313,3.134,1.881,4.231,2.272,2.351.862,6.739-.078,5.8-3.526.47,1.724,2.429,1.959,3.918,1.959,2.743-.078,6.5-.627,8.541-2.586a4.8,4.8,0,0,0,.392-6.425,8.311,8.311,0,0,0-5.015-2.821,24.6,24.6,0,0,0-5.877-.157c1.489-.157,2.429-1.724,2.978-3.134a8.624,8.624,0,0,0,.235-4.466c-.392-2.351-1.332-4.78-3.291-6.034-2.429-1.489-5.642-.784-7.836.94a20.5,20.5,0,0,0-5.015,6.739c.392-1.332-.47-2.664-1.41-3.6a7.172,7.172,0,0,0-3.683-1.646,10.8,10.8,0,0,0-11.048,6.19,7.254,7.254,0,0,0-7.287-3.448,7.83,7.83,0,0,0-5.877,5.642,8.8,8.8,0,0,0,2.037,7.992,6.168,6.168,0,0,0-5.642,5.328,6.24,6.24,0,0,0,4.231,6.5,6.794,6.794,0,0,0-1.881,5.407,6.125,6.125,0,0,0,2.978,4.466C296.762,148.365,301.464,147.816,302.561,152.048Z" transform="translate(-260.412 -106.965)" fill="#844d6c"/>
          <path id="Tracciato_66" data-name="Tracciato 66" d="M344.372,512.775s.705,12.616-2.272,18.649c0,0,4.936,4.31,11.283,0a63.128,63.128,0,0,0,1.8-19.824Z" transform="translate(-271.351 -194.539)" fill="#fdd2d9"/>
          <path id="Tracciato_67" data-name="Tracciato 67" d="M341.439,536.509s-1.019,2.821-2.116,5.172a3.139,3.139,0,0,0,1.959,4.31c7.444,2.116,23.586,5.563,30.324-.862a4.9,4.9,0,0,0,.157-7.052c-1.881-1.8-5.25-3.526-11.283-2.821a18.6,18.6,0,0,0-3.6.862,7.1,7.1,0,0,1-4.231.313C352.644,536.509,348.491,540.349,341.439,536.509Z" transform="translate(-270.69 -199.623)" fill="#844d6c"/>
          <path id="Tracciato_68" data-name="Tracciato 68" d="M269.043,504.2s-5.015,11.6-10.343,15.671c0,0,2.507,6.034,10.03,5.015a61.249,61.249,0,0,0,10.5-16.847Z" transform="translate(-253.301 -192.937)" fill="#fdd2d9"/>
          <path id="Tracciato_69" data-name="Tracciato 69" d="M257.209,524.2s-2.194,2.037-4.231,3.683a3.17,3.17,0,0,0-.157,4.78c5.72,5.172,18.571,15.515,27.5,12.851a4.93,4.93,0,0,0,3.291-6.269c-.862-2.507-3.134-5.485-8.854-7.6a18.59,18.59,0,0,0-3.6-.862,6.961,6.961,0,0,1-3.918-1.567S261.832,530.782,257.209,524.2Z" transform="translate(-251.81 -197.266)" fill="#844d6c"/>
          <path id="Tracciato_70" data-name="Tracciato 70" d="M336.835,478.3c-.157,0-.235.078-.392.078a16.43,16.43,0,0,1-19.981-17.709c2.272-21.862,5.955-70.6-2.272-97.555,0,0-4.936,74.674-17.865,102.57a16.887,16.887,0,0,1-13.634,9.795H282.3c-12.459,1.1-21.7-11.283-17.4-23.037,7.757-21,26.171-74.048,30.794-112.443a9.077,9.077,0,0,0,2.9,1.41,50.879,50.879,0,0,0,34.32-1.41s19.276,70.835,16.22,123.256A16.3,16.3,0,0,1,336.835,478.3Z" transform="translate(-254.412 -157.4)" fill="#2e2e2e"/>
          <path id="Tracciato_71" data-name="Tracciato 71" d="M345.819,308.527a9.237,9.237,0,0,1-5.172,5.407,50.879,50.879,0,0,1-34.32,1.41,8.671,8.671,0,0,1-2.821-1.41h0a9.343,9.343,0,0,1-3.761-9.56c4.7-22.88,9.4-67.7,9.4-67.7a40.779,40.779,0,0,1,2.037-10.735,17.974,17.974,0,0,1,3.839-6.739,50.44,50.44,0,0,0,6.112,6.739c-.157,1.019-.235,2.037-.313,3.134,0,0-.548,5.25-1.489,13.086-1.724,15.045-4.858,39.57-7.914,54.615a9.343,9.343,0,0,0,3.761,9.56h0a9.077,9.077,0,0,0,2.9,1.41A50.956,50.956,0,0,0,345.819,308.527Z" transform="translate(-262.141 -131.255)" fill="#303f8e"/>
          <path id="Tracciato_72" data-name="Tracciato 72" d="M364.113,237.158a19.6,19.6,0,0,1-19.746,8.7c-8.776-1.489-16.455-6.269-21.235-10.108a36.173,36.173,0,0,1-4.153-3.839A14.968,14.968,0,0,1,317.1,229.4a16.681,16.681,0,0,1-2.116-9.873,22.975,22.975,0,0,1,1.646-6.5,1.224,1.224,0,0,1,2.116-.235h0a50.44,50.44,0,0,0,6.112,6.739c7.836,7.209,17,11.283,22.332,12.616,3.526.862,6.269-1.1,8.228-4.075,7.522-11.44,7.914-24.526,6.817-32.44a6.89,6.89,0,0,1,8.306-7.679.288.288,0,0,1,.235.078,6.847,6.847,0,0,1,5.25,6.347C377.12,213.259,369.755,228.46,364.113,237.158Z" transform="translate(-265.469 -124.452)" fill="#303f8e"/>
          <path id="Tracciato_73" data-name="Tracciato 73" d="M364.295,237.511a19.536,19.536,0,0,1-19.746,8.7c-8.776-1.489-16.455-6.269-21.235-10.108a47.327,47.327,0,0,1-4.231-3.839,14.948,14.948,0,0,1-3.683-7.131c.235.313.47.548.705.862a35.778,35.778,0,0,0,4.153,3.84c4.78,3.84,12.459,8.619,21.235,10.108a19.536,19.536,0,0,0,19.746-8.7c5.485-8.541,12.694-23.429,11.989-41.843a6.785,6.785,0,0,1,2.978,5.328C377.224,213.612,369.858,228.814,364.295,237.511Z" transform="translate(-265.573 -124.806)" fill="#303f8e"/>
          <path id="Tracciato_74" data-name="Tracciato 74" d="M285.8,474.953a13.894,13.894,0,0,1-3.134.627h-.392a17.152,17.152,0,0,1-17.474-23.037c7.757-21,26.171-74.048,30.794-112.443a9.527,9.527,0,0,0,2.821,1.41,55.991,55.991,0,0,0,6.66,1.567c-5.093,38.082-22.88,89.014-30.4,109.465A17.392,17.392,0,0,0,285.8,474.953Z" transform="translate(-254.392 -157.422)" fill="#151918"/>
          <path id="Tracciato_75" data-name="Tracciato 75" d="M358.581,479.376a15.392,15.392,0,0,1-7.679,4.388c-.157,0-.235.078-.392.078a16.376,16.376,0,0,1-19.981-17.709c1.646-15.828,6.5-70.208-2.429-97.476,0-.078.078-.157.078-.235a4.5,4.5,0,0,1,8.541.627c6.582,27.582,3.134,72.089,1.019,92.775A16.46,16.46,0,0,0,357.8,479.533c.157,0,.235-.078.392-.078S358.424,479.376,358.581,479.376Z" transform="translate(-268.321 -162.942)" fill="#151918"/>
          <path id="Tracciato_76" data-name="Tracciato 76" d="M350.566,135.214c-2.037,1.959-5.8,2.507-8.541,2.586-1.489,0-3.448-.235-3.918-1.959.94,3.448-3.448,4.388-5.8,3.526-1.1-.392-3.369-2.586-4.231-2.272-.94.313-1.489,1.175-2.507,1.489a7.008,7.008,0,0,1-3.6.157,19.349,19.349,0,0,1-3.134-1.567A6.936,6.936,0,0,1,309.977,136a5.421,5.421,0,0,1,.078,4.545,6.315,6.315,0,0,1-3.448,3.369,6.787,6.787,0,0,0-.47-2.507,18.044,18.044,0,0,0-2.037-3.84,6.339,6.339,0,0,0,3.526-3.448,5.729,5.729,0,0,0-.078-4.545,6.819,6.819,0,0,0,8.854,1.175,19.352,19.352,0,0,0,3.134,1.567,7.045,7.045,0,0,0,3.6-.157c.94-.313,1.567-1.175,2.507-1.489.862-.313,3.134,1.881,4.231,2.272,2.351.862,6.739-.078,5.877-3.526.47,1.724,2.429,1.959,3.918,1.959,2.742-.078,6.5-.627,8.541-2.586a4.877,4.877,0,0,0,1.1-1.489,7.866,7.866,0,0,1,1.724,1.489A4.723,4.723,0,0,1,350.566,135.214Z" transform="translate(-263.127 -111.366)" fill="#7a4765"/>
        </g>
        <g id="Raggruppa_10" data-name="Raggruppa 10" transform="translate(197.774 11.373)">
          <path id="Tracciato_77" data-name="Tracciato 77" d="M527.335,148.872s1.019,12.459-1.489,21.313a36.713,36.713,0,0,0-1.567,12.694c.47,7.287,3.448,15.907,14.81,15.907,0,0,22.175,2.586,21.313-25.858,0,0-1.254-16.925-2.586-26.328a18.341,18.341,0,0,1-8.149,3.761,15.009,15.009,0,0,1-8.854-1.254C538.149,147.775,532.037,145.66,527.335,148.872Z" transform="translate(-441.736 -126.916)" fill="#fdd2d9"/>
          <path id="Tracciato_78" data-name="Tracciato 78" d="M554.513,141.163s-7.679,7.679-17,2.429c0,0-13.007-6.66-28.522,10.186,0,0-2.507-33.145,29.932-32.283,0,0,15.28.392,20.686,11.519,0,0,12.851-1.959,13.477,23.115,0,0,.157,12.772,1.959,21.862a16.673,16.673,0,0,1-8.619,18.257c-5.642,2.9-13.242,3.056-22.253-5.642a8.39,8.39,0,0,1-2.037-8.933c0-.078,0-.078.078-.157a.243.243,0,0,0,.078.157,6.166,6.166,0,0,0,10.578-1.41C555.14,174.857,558.2,162.79,554.513,141.163Z" transform="translate(-438.433 -121.479)" fill="#844d6c"/>
          <path id="Tracciato_79" data-name="Tracciato 79" d="M512.995,155.02s-.313,13.477-5.328,21.156a22.311,22.311,0,0,0-2.194,4.31c-1.881,5.328-4.153,16.3,7.209,20.765a12.2,12.2,0,0,0,7.287.627c3.448-.784,7.6-3.369,7.679-10.97,0,0-5.328,4.153-7.757-5.955a44.046,44.046,0,0,1,1.41-13.477,54.889,54.889,0,0,0,1.724-22.175C522.946,149.457,517.148,150.71,512.995,155.02Z" transform="translate(-437.347 -127.5)" fill="#844d6c"/>
          <path id="Tracciato_80" data-name="Tracciato 80" d="M537.825,212s-3.369,10.97-2.194,18.414c0,0,3.213,5.563,12.3,1.175,0,0-4.31-9.089-1.489-18.884C546.445,212.627,541.586,213.175,537.825,212Z" transform="translate(-444.155 -141.07)" fill="#fdd2d9"/>
          <path id="Tracciato_81" data-name="Tracciato 81" d="M577.562,342.885A15.3,15.3,0,0,1,571.45,364.9c-1.959.94-3.84,1.8-5.8,2.586h0a72.531,72.531,0,0,1-14.026,4.153,78.277,78.277,0,0,1-17.239,1.41,76.948,76.948,0,0,1-14.1-1.8,93.44,93.44,0,0,1-12.851-3.918,10.753,10.753,0,0,1-4.78-16.22c14.653-20.765,20.53-66.525,20.53-66.525-20.216-37.768,4.858-49.287,4.858-49.287,3.918,5.407,12.3,1.175,12.3,1.175,3.6-.47,4.858,1.724,4.858,1.724a8.475,8.475,0,0,1,5.563,3.213c-7.287,11.283-5.172,24.918-5.172,24.918C546.454,290.62,565.887,324.627,577.562,342.885Z" transform="translate(-436.642 -146.113)" fill="#394db4"/>
          <path id="Tracciato_82" data-name="Tracciato 82" d="M577.04,365.331c-1.959.94-3.84,1.8-5.8,2.586h0a73.494,73.494,0,0,1-13.948,4.153,78.278,78.278,0,0,1-17.239,1.41,80.214,80.214,0,0,1-13.556-1.645,19.808,19.808,0,0,0,2.194.078,76.791,76.791,0,0,0,31.186-5.563h0c1.881-.784,3.84-1.646,5.8-2.586a15.3,15.3,0,0,0,6.112-22.018C560.115,323.41,540.6,289.481,539.9,265.269c0,0-2.116-13.634,5.172-24.918a10.1,10.1,0,0,0-2.429-2.194,17.4,17.4,0,0,0,3.369-1.175c3.6-.47,4.858,1.724,4.858,1.724a8.476,8.476,0,0,1,5.563,3.213c-7.287,11.283-5.172,24.918-5.172,24.918.705,24.212,20.138,58.141,31.891,76.477A15.312,15.312,0,0,1,577.04,365.331Z" transform="translate(-442.233 -146.463)" fill="#303f8e"/>
          <path id="Tracciato_83" data-name="Tracciato 83" d="M525.644,239.1a100.312,100.312,0,0,0-11.6,3.056,7.448,7.448,0,0,0-4.936,5.877,22.393,22.393,0,0,0,.235,8.776,7.315,7.315,0,0,0,7.757,5.485h.078C517.26,262.372,514.987,248.189,525.644,239.1Z" transform="translate(-438.399 -146.935)" fill="#fbfbfd"/>
          <path id="Tracciato_84" data-name="Tracciato 84" d="M567.2,274.962s16.847,38.552,36.436,47.093a46.655,46.655,0,0,0-1.1,7.992,4.513,4.513,0,0,0,.157,2.037,1.678,1.678,0,0,0,1.489,1.175,1.986,1.986,0,0,0,1.41-.784,5.47,5.47,0,0,0,.627-1.567l1.175-4c.235-.784.627-1.724,1.41-1.881s1.41.47,1.881,1.1c2.429,3.213,2.586,7.6,4.388,11.205a5.242,5.242,0,0,0,1.1,1.489,2.1,2.1,0,0,0,1.8.392,2.438,2.438,0,0,0,1.254-2.116c0-.862-.235-1.724-.235-2.586a8.771,8.771,0,0,0,1.881,2.586,1.878,1.878,0,0,0,1.8.627,1.629,1.629,0,0,0,.862-1.646,6.055,6.055,0,0,0-1.019-3.84,4.852,4.852,0,0,0,1.881.627,1.8,1.8,0,0,0,1.724-.627,3.025,3.025,0,0,0,.157-2.351,24.286,24.286,0,0,0-3.918-9.246c-2.037-2.664-6.9-5.328-11.283-4.78,0,0-26.563-14.574-36.123-49.365C575.036,266.421,570.021,273.4,567.2,274.962Z" transform="translate(-451.041 -152.865)" fill="#fdd2d9"/>
          <path id="Tracciato_85" data-name="Tracciato 85" d="M494.465,229.5s-29.854,3.448-47.406-54.223c-.157-1.724-.47-4.075-.705-5.8a14.578,14.578,0,0,0-2.116-6.19c-.392-.705-.94-1.332-1.881-1.1a1.716,1.716,0,0,0-1.019.94c-.862,2.116.548,4.075,1.175,6.034a8.228,8.228,0,0,1-1.645,7.679,6.157,6.157,0,0,0-1.489,4.78s7.757,52.891,55.555,60.727C494.935,242.346,492.428,238.193,494.465,229.5Z" transform="translate(-423.362 -130.278)" fill="#fdd2d9"/>
          <g id="Raggruppa_9" data-name="Raggruppa 9" transform="translate(4.891 13.102)">
            <path id="Tracciato_86" data-name="Tracciato 86" d="M433.428,174.572h0a8.227,8.227,0,0,1-8.228-8.228V140.8h16.377v25.544A8.111,8.111,0,0,1,433.428,174.572Z" transform="translate(-425.2 -138.763)" fill="#fff"/>
            <ellipse id="Ellisse_9" data-name="Ellisse 9" cx="8.228" cy="2.116" rx="8.228" ry="2.116" fill="#fff"/>
            <ellipse id="Ellisse_10" data-name="Ellisse 10" cx="8.228" cy="2.116" rx="8.228" ry="2.116" transform="translate(0 60.178)" fill="#fff"/>
            <rect id="Rettangolo_18" data-name="Rettangolo 18" width="2.664" height="26.563" transform="translate(6.895 35.026)" fill="#fff"/>
          </g>
          <path id="Tracciato_87" data-name="Tracciato 87" d="M603.568,458.558c-5.172,9.638-13.948,6.034-13.948,6.034-15.2-14.5-23.821-56.339-23.821-56.339a80.437,80.437,0,0,0,14.026-4.153h0C585.7,443.827,603.568,458.558,603.568,458.558Z" transform="translate(-450.738 -182.646)" fill="#222827"/>
          <path id="Tracciato_88" data-name="Tracciato 88" d="M424.476,159.2a14.529,14.529,0,0,0,3.056,6.347c.627.784,1.489,1.724,1.175,2.742a1.337,1.337,0,0,1-1.1,1.019,1.512,1.512,0,0,1-1.41-.47,3.443,3.443,0,0,1,.549,2.116,1.8,1.8,0,0,1-1.1,1.724,1.226,1.226,0,0,1-1.646-.94,2.38,2.38,0,0,1,.078,1.8,1.8,1.8,0,0,1-1.254,1.332,1.932,1.932,0,0,1-1.41-.47,4.439,4.439,0,0,1-.94-1.175,8.928,8.928,0,0,1-1.489-3.683,4.075,4.075,0,0,1,1.254-3.6,5.421,5.421,0,0,1,.627-4.388A4.978,4.978,0,0,1,424.476,159.2Z" transform="translate(-418.957 -129.643)" fill="#fdd2d9"/>
          <path id="Tracciato_89" data-name="Tracciato 89" d="M610.522,475.8s7.914,9.56,12.851,11.362c0,0-1.41,6.269-6.425,5.642,0,0-9.325-4.623-13.948-12.067A10.068,10.068,0,0,0,610.522,475.8Z" transform="translate(-458.789 -198.164)" fill="#f6d3c2"/>
          <path id="Tracciato_90" data-name="Tracciato 90" d="M626.8,490.4s14.026,7.287,19.981,7.836c0,0,1.489,3.291-2.351,5.72,0,0-11.127-3.134-14.261-6.817,0,0,3.84,9.4,9.246,11.989,0,0-4.7,12.459-15.515,14.888a4.135,4.135,0,0,1-4.858-2.9c0-.078-.078-.235-.078-.313a4.119,4.119,0,0,1,.94-3.761c2.429-2.586,7.052-9.716.392-21.078C620.378,495.963,625.314,496.512,626.8,490.4Z" transform="translate(-462.22 -201.324)" fill="#844d6c"/>
          <path id="Tracciato_91" data-name="Tracciato 91" d="M536.784,487.484s.235,12.459,2.9,16.925c0,0-5.015,4-8.541.392,0,0-4.388-9.4-3.291-18.1A10.081,10.081,0,0,0,536.784,487.484Z" transform="translate(-442.487 -200.523)" fill="#f6d3c2"/>
          <path id="Tracciato_92" data-name="Tracciato 92" d="M536.039,509.3s6.425,14.5,10.735,18.649c0,0-.862,3.448-5.407,2.978,0,0-6.739-9.4-6.9-14.261,0,0-2.9,9.716-.313,15.123,0,0-11.44,6.817-21.392,1.959a4.052,4.052,0,0,1-1.959-5.25c.078-.078.078-.235.157-.313a4.1,4.1,0,0,1,3.056-2.351c3.526-.549,11.519-3.213,13.556-16.22C527.5,509.692,531.024,513.218,536.039,509.3Z" transform="translate(-438.764 -205.414)" fill="#844d6c"/>
          <path id="Tracciato_93" data-name="Tracciato 93" d="M537.562,469.962c-7.679,4.075-12.459,0-12.459,0-4.858-19.354,0-60.962,0-60.962a77.847,77.847,0,0,0,14.1,1.8l.392.078C535.133,436.425,537.562,469.962,537.562,469.962Z" transform="translate(-441.463 -183.706)" fill="#222827"/>
          <path id="Tracciato_94" data-name="Tracciato 94" d="M535.218,235.5s-3.761,3.134-.235,11.989c0,0,8.854-2.194,12.537-10.813C547.521,236.675,539.058,240.515,535.218,235.5Z" transform="translate(-443.742 -146.156)" fill="#fbfbfd"/>
          <path id="Tracciato_95" data-name="Tracciato 95" d="M563.171,243.2s5.563,4,11.127,14.261a9.31,9.31,0,0,1-.862,10.108c-.235.235-.392.549-.627.784a9.282,9.282,0,0,1-13.477.94c-.392-.392-.784-.784-1.254-1.175C558.078,268.118,555.414,257.539,563.171,243.2Z" transform="translate(-448.971 -147.823)" fill="#fbfbfd"/>
          <path id="Tracciato_96" data-name="Tracciato 96" d="M606.252,458.58a15.792,15.792,0,0,1-3.056,4.075c-4.858-4.936-18.884-21.862-25-56.887,1.41-.47,2.821-1.019,4.31-1.567h0C588.386,443.849,606.252,458.58,606.252,458.58Z" transform="translate(-453.422 -182.667)" fill="#181c1b"/>
          <path id="Tracciato_97" data-name="Tracciato 97" d="M540.048,470.373a15.631,15.631,0,0,1-5.093,1.724c-.549-10.186-1.489-38.082,2.194-61.2,1.489.157,2.978.235,4.545.313l.392.078C537.619,436.836,540.048,470.373,540.048,470.373Z" transform="translate(-443.948 -184.118)" fill="#181c1b"/>
          <path id="Tracciato_98" data-name="Tracciato 98" d="M575.656,199.629c-5.642,2.9-13.242,3.056-22.253-5.642a8.186,8.186,0,0,1-1.8-2.507c7.13,4.937,13.242,4.466,17.944,2.037a16.723,16.723,0,0,0,8.619-18.257c-1.8-9.011-1.959-21.783-1.959-21.783-.235-7.757-1.567-12.929-3.369-16.377,3.839,1.646,9.011,6.739,9.4,22.41,0,0,.157,12.772,1.959,21.862A16.421,16.421,0,0,1,575.656,199.629Z" transform="translate(-447.665 -124.86)" fill="#7a4765"/>
          <path id="Tracciato_99" data-name="Tracciato 99" d="M527.068,195.561a9.1,9.1,0,0,1-7.209,7.209,12.894,12.894,0,0,1-7.287-.627c-11.362-4.545-9.168-15.436-7.209-20.765a20.273,20.273,0,0,1,2.194-4.31c5.015-7.679,5.328-21.156,5.328-21.156a17.43,17.43,0,0,1,4.153-3.213c-.392,4.388-1.567,12.772-5.172,18.336a24.815,24.815,0,0,0-2.194,4.31c-1.881,5.328-4.153,16.3,7.209,20.765a12.2,12.2,0,0,0,7.287.627A15.007,15.007,0,0,0,527.068,195.561Z" transform="translate(-437.316 -128.236)" fill="#7a4765"/>
        </g>
        <g id="Raggruppa_12" data-name="Raggruppa 12" transform="translate(0 19.648)">
          <path id="Tracciato_100" data-name="Tracciato 100" d="M272.433,151.519s-21.705,3.761-30.951-5.015c0,0-1.959,4.937-6.112,6.112l1.254,25.858s1.332,16.533,18.414,17.082l1.8,50.7s-27.817,12.537-39.649-5.955a24.086,24.086,0,0,1-1.1-23.586c4.858-9.951,12.3-28.522,10.657-46.074a47.185,47.185,0,0,1,.078-11.519c2.351-16.612,7.287-30.324,30.794-26.406,0,0,23.977-4.153,24.134,23.429a97.438,97.438,0,0,0,2.272,20.765,239.423,239.423,0,0,0,10.657,35.653c7.992,19.824-10.813,40.119-30.951,33.067l-1.41-.47L256.84,190.7Z" transform="translate(-176.724 -132.039)" fill="#222827"/>
          <path id="Tracciato_101" data-name="Tracciato 101" d="M256.74,268.291s-27.817,12.537-39.649-5.955a24.1,24.1,0,0,1-1.1-23.586c.784-1.567,1.567-3.369,2.429-5.25a23.353,23.353,0,0,0,3.6,14.183c8.541,13.4,25.623,10.5,34.242,7.836Z" transform="translate(-176.703 -153.998)" fill="#181c1b"/>
          <path id="Tracciato_102" data-name="Tracciato 102" d="M276.721,267.4l-1.41-.47-1.41-13.713h.078c16.063,5.642,31.343-6.19,32.753-21.313l.94,2.351C315.664,254.075,296.859,274.448,276.721,267.4Z" transform="translate(-189.789 -153.652)" fill="#181c1b"/>
          <path id="Tracciato_103" data-name="Tracciato 103" d="M277.685,144.905s1.1,20.686,2.9,31.343a18.135,18.135,0,0,1-9.873,19.511,26.619,26.619,0,0,1-7.522,2.272,18.067,18.067,0,0,1-20.765-16.847v-.47L240.7,145.454s17.474,4.937,30.481-1.254C271.259,144.2,275.021,147.334,277.685,144.905Z" transform="translate(-182.603 -134.671)" fill="#fdd2d9"/>
          <path id="Tracciato_104" data-name="Tracciato 104" d="M280.832,160.565c-3.134.47-25.153-4.153-33.615-12.224,0,0-2.586,11.519-6.66,12.694l-.157-17.16s17.709,5.015,30.716-1.175c0,0,4.7,3.448,7.366,1.019C278.482,143.719,281.381,155.707,280.832,160.565Z" transform="translate(-182.538 -134.346)" fill="#222827"/>
          <path id="Tracciato_105" data-name="Tracciato 105" d="M258.01,211.9s.862,10.343-1.41,14.81c0,0,3.448,5.093,11.283,1.175,0,0,.784-9.716-.078-15.436A17.178,17.178,0,0,1,258.01,211.9Z" transform="translate(-186.044 -149.323)" fill="#fdd2d9"/>
          <path id="Tracciato_106" data-name="Tracciato 106" d="M260.741,232.054s15.985,17.865,14.026,90.033c0,0-26.015,12.067-51.167-6.112,0,0,8.619-38.63,8.933-64.723.078-6.9,1.881-15.358,9.795-18.806a29.334,29.334,0,0,1,7.131-1.646S253.376,235.893,260.741,232.054Z" transform="translate(-178.902 -153.413)" fill="#e8e8e8"/>
          <path id="Tracciato_107" data-name="Tracciato 107" d="M271.6,396.41a9.1,9.1,0,0,1-7.914,8.306c-.392.078-.784.078-1.175.157a102.233,102.233,0,0,1-14.026.784,82.763,82.763,0,0,1-17.16-1.724,57.122,57.122,0,0,1-13.242-4.388H218a8.953,8.953,0,0,1-5.015-9.089c1.175-12.067,4.466-39.1,11.832-47.955,0,0,17.474,13.321,43.253,5.328C268.071,347.828,273.4,374.235,271.6,396.41Z" transform="translate(-176.595 -177.588)" fill="#222827"/>
          <path id="Tracciato_108" data-name="Tracciato 108" d="M289.038,503.67c-8.933,3.056-10.813-1.724-10.813-1.724,4.388-26.015-15.985-70.913-19.824-79.062a118.457,118.457,0,0,0,14.026-.784C293.974,469.506,289.038,503.67,289.038,503.67Z" transform="translate(-186.434 -194.816)" fill="#fdd2d9"/>
          <path id="Tracciato_109" data-name="Tracciato 109" d="M224.358,419.71c-.862,10.5-10.108,59.081-34.869,83.137,0,0-5.328,4.231-9.089-6.974,0,0,25.309-20.843,30.638-80.473A58.745,58.745,0,0,0,224.358,419.71Z" transform="translate(-169.553 -193.366)" fill="#fdd2d9"/>
          <path id="Tracciato_110" data-name="Tracciato 110" d="M271,232.4s26.72,47.641,39.1,88.152a8.575,8.575,0,0,1-1.881,8.384l-.157.157A8.686,8.686,0,0,1,293.332,324c-.784-6.425-2.978-16.533-8.463-30.089C284.869,293.989,283.145,250.579,271,232.4Z" transform="translate(-189.161 -153.76)" fill="#fff"/>
          <path id="Tracciato_111" data-name="Tracciato 111" d="M282.6,524s-2.351,7.836-3.839,11.519a1.858,1.858,0,0,0,.627,2.194,7.835,7.835,0,0,0,1.646.862,1.874,1.874,0,0,0,2.272-.862,36.764,36.764,0,0,0,2.507-6.112,39.93,39.93,0,0,1,.157,4.858,4.207,4.207,0,0,0,3.526,4.153c4.153.705,11.048,1.175,17-1.175a4.079,4.079,0,0,0,2.586-4v-.078a4.227,4.227,0,0,0-4.075-3.84c-3.84-.078-10.265-1.254-11.048-7.366C293.885,524,286.755,526.821,282.6,524Z" transform="translate(-190.812 -216.87)" fill="#222827"/>
          <path id="Tracciato_112" data-name="Tracciato 112" d="M178.344,517.1s-7.131,4.075-10.735,5.642a1.8,1.8,0,0,0-1.019,2.037,5.183,5.183,0,0,0,.627,1.724,1.83,1.83,0,0,0,2.272.94,27.264,27.264,0,0,0,6.034-2.742s-1.41,1.724-3.213,3.6a4.267,4.267,0,0,0-.392,5.407c2.507,3.369,7.131,8.541,13.086,10.892a4.083,4.083,0,0,0,4.623-1.1.077.077,0,0,1,.078-.078,4.03,4.03,0,0,0-.313-5.563c-2.664-2.742-6.582-7.992-2.9-12.929C186.493,524.936,179.441,522.037,178.344,517.1Z" transform="translate(-166.557 -215.377)" fill="#222827"/>
          <path id="Tracciato_113" data-name="Tracciato 113" d="M333.981,202.385a39.8,39.8,0,0,0,7.6-9.168s-2.272-2.742.392-9.168a20.321,20.321,0,0,0,.784-6.66,2.237,2.237,0,0,1,.627-1.8h0a2.416,2.416,0,0,1,4.153,1.332,42.475,42.475,0,0,1,.313,9.4,7.715,7.715,0,0,0,.94,4.545,20.633,20.633,0,0,1,1.332,2.9,7.415,7.415,0,0,1-2.037,8.149,64.826,64.826,0,0,1-9.795,7.209,2.194,2.194,0,0,1-2.821-.548,14.573,14.573,0,0,1-2.194-3.84A2.212,2.212,0,0,1,333.981,202.385Z" transform="translate(-202.62 -141.297)" fill="#fdd2d9"/>
          <path id="Tracciato_114" data-name="Tracciato 114" d="M307.086,358.364s1.881,7.209,1.332,11.989c-.235,2.351-1.724,4.466-2.037,6.817a4.2,4.2,0,0,0,.157,2.194,1.658,1.658,0,0,0,1.724,1.1c.862-.157,1.332-1.019,1.645-1.8.392-.94.784-1.8,1.175-2.742a30.107,30.107,0,0,1,1.567,10.892,3.935,3.935,0,0,0,.157,1.646,1.076,1.076,0,0,0,2.116,0,3.45,3.45,0,0,0,.157-1.254,2.634,2.634,0,0,0,1.567,2.116,2,2,0,0,0,1.959-.549,3.092,3.092,0,0,0,.784-1.959,9.57,9.57,0,0,0-.078-2.116,1.667,1.667,0,0,0,2.429-.313,4.9,4.9,0,0,0,.627-2.978,20.855,20.855,0,0,0-5.25-13.086s.235-7.679-1.41-12.616C315.784,355.7,312.963,358.364,307.086,358.364Z" transform="translate(-196.803 -180.445)" fill="#fdd2d9"/>
          <g id="Raggruppa_11" data-name="Raggruppa 11" transform="translate(144.447 26.219)">
            <path id="Tracciato_115" data-name="Tracciato 115" d="M359.128,201.872h0a8.226,8.226,0,0,1-8.228-8.228V168.1h16.377v25.544A8.063,8.063,0,0,1,359.128,201.872Z" transform="translate(-350.9 -166.063)" fill="#fff"/>
            <ellipse id="Ellisse_11" data-name="Ellisse 11" cx="8.228" cy="2.116" rx="8.228" ry="2.116" fill="#fff"/>
            <ellipse id="Ellisse_12" data-name="Ellisse 12" cx="8.228" cy="2.116" rx="8.228" ry="2.116" transform="translate(0 60.178)" fill="#fff"/>
            <rect id="Rettangolo_19" data-name="Rettangolo 19" width="2.664" height="26.563" transform="translate(6.895 35.026)" fill="#fff"/>
          </g>
          <path id="Tracciato_116" data-name="Tracciato 116" d="M367.412,180.854a5.251,5.251,0,0,0-3.291.235,3.557,3.557,0,0,0-1.489,1.175,2.125,2.125,0,0,0-.235,1.8,1.374,1.374,0,0,0,1.489.862,5.241,5.241,0,0,0-1.567,1.646,2.153,2.153,0,0,0-.47,2.037,1.3,1.3,0,0,0,1.724.784c-.862.078-1.959,1.41-2.194,2.194a2.281,2.281,0,0,0,.705,2.272,4.053,4.053,0,0,0,2.9.47,10.146,10.146,0,0,0,3.918-1.1,4.886,4.886,0,0,0,2.507-3.056,3.058,3.058,0,0,0-1.489-3.448,2.036,2.036,0,0,0,1.646-1.41,3.262,3.262,0,0,0-.157-2.272C370.86,181.559,368.979,181.246,367.412,180.854Z" transform="translate(-208.704 -142.568)" fill="#fdd2d9"/>
          <path id="Tracciato_117" data-name="Tracciato 117" d="M274.846,318.309c0,1.41-.078,2.821-.078,4.231,0,0-26.015,12.067-51.167-6.112,0,0,8.619-38.63,8.933-64.723a15.1,15.1,0,0,1,.078-1.881c.392-6.5,2.507-13.791,9.716-16.925,0,0-1.646,9.089,1.959,14.5-.157,5.25-.627,10.813-1.254,16.455-.784,6.739-1.724,13.477-2.742,19.589a30.294,30.294,0,0,0,34.32,34.869Z" transform="translate(-178.902 -153.868)" fill="#fff"/>
          <path id="Tracciato_118" data-name="Tracciato 118" d="M316.535,221.81c-11.832,11.127-40.981,36.123-64.88,37.533a14.314,14.314,0,0,1-6.112-.862A15.551,15.551,0,0,1,235.2,244.769v-.313h0s-.235-14.731,9.716-16.925c0,0-1.646,9.089,1.959,14.5,2.351,3.526,7.052,5.485,16.063,2.116,0,0,19.433-7.444,42-33.537a8.166,8.166,0,0,1,10.108-1.881c.078,0,.078.078.157.078A8.239,8.239,0,0,1,316.535,221.81Z" transform="translate(-181.413 -148.42)" fill="#fff"/>
          <path id="Tracciato_119" data-name="Tracciato 119" d="M316.535,223.146c-11.832,11.127-40.981,36.123-64.88,37.533A15.535,15.535,0,0,1,235.2,246.1v-.392a31.783,31.783,0,0,1,.313-3.918,15.585,15.585,0,0,0,16.22,12.38c23.9-1.41,53.048-26.406,64.88-37.533a8.4,8.4,0,0,0,1.959-2.742A8.59,8.59,0,0,1,316.535,223.146Z" transform="translate(-181.413 -149.756)" fill="#c7c7c7"/>
          <path id="Tracciato_120" data-name="Tracciato 120" d="M310.7,340.874a8.705,8.705,0,0,1-14.183-5.563c-.784-6.425-2.978-16.533-8.463-30.089,0,0-.392-9.246-1.959-20.921,9.324,20.53,13.321,35.966,15.045,45.839A13.637,13.637,0,0,0,310.7,340.874Z" transform="translate(-192.429 -164.992)" fill="#f5f5f5"/>
          <path id="Tracciato_121" data-name="Tracciato 121" d="M227.269,403.013a52.67,52.67,0,0,1-9.089-3.369H218.1a8.953,8.953,0,0,1-5.015-9.089c1.175-12.067,4.466-39.1,11.754-47.955a37.546,37.546,0,0,0,7.052,3.84c-4.466,15.75-6.817,35.888-7.836,46.858A12.488,12.488,0,0,0,227.269,403.013Z" transform="translate(-176.616 -177.61)" fill="#151918"/>
          <path id="Tracciato_122" data-name="Tracciato 122" d="M281.328,321.661s-.157-31.265-6.66-41.608a3.15,3.15,0,0,1-.078-3.213c0-.078.078-.078.078-.157a3.267,3.267,0,0,1,5.955,1.175A134.664,134.664,0,0,1,281.328,321.661Z" transform="translate(-189.851 -163.018)" fill="#dedede"/>
          <path id="Tracciato_123" data-name="Tracciato 123" d="M299.5,232.2s14.731-10.422,20.451-19.668a4.257,4.257,0,0,1,3.918-2.037h.157a2.591,2.591,0,0,1,1.8,4.231A59.269,59.269,0,0,1,299.5,232.2Z" transform="translate(-195.329 -149.015)" fill="#dfdfdf"/>
        </g>
      </g>
    </g>
    <g id="Lights" transform="translate(-40.971 25.286) rotate(3)">
      <path id="line" d="M261.235-39.475c8,79.664,147.52,135.533,227.57,128.29s171.535,20.692,260.733,103.46,236.718,7.242,379.664,34.142,205.842,6.208,205.842,6.208" transform="translate(0 0)" fill="none" stroke="#3b3b3b" stroke-width="1"/>
      <g id="light_spheres" data-name="light spheres" transform="translate(330 16.817)">
        <g transform="matrix(1, -0.05, 0.05, 1, -204.25, -301.85)" filter="url(#Ellisse_13)">
          <g id="Ellisse_13-3" data-name="Ellisse 13" transform="translate(188.18 312.13) rotate(3)" fill="#fff" stroke="#fff" stroke-width="1">
            <circle cx="15" cy="15" r="15" stroke="none"/>
            <circle cx="15" cy="15" r="14.5" fill="none"/>
          </g>
        </g>
        <g transform="matrix(1, -0.05, 0.05, 1, -204.25, -301.85)" filter="url(#Ellisse_14)">
          <g id="Ellisse_14-2" data-name="Ellisse 14" transform="translate(344.88 361.4) rotate(3)" fill="#fff" stroke="#fff" stroke-width="1">
            <circle cx="12.5" cy="12.5" r="12.5" stroke="none"/>
            <circle cx="12.5" cy="12.5" r="12" fill="none"/>
          </g>
        </g>
        <g transform="matrix(1, -0.05, 0.05, 1, -204.25, -301.85)" filter="url(#Ellisse_15)">
          <g id="Ellisse_15-3" data-name="Ellisse 15" transform="translate(583.16 486.04) rotate(3)" fill="#fff" stroke="#fff" stroke-width="1">
            <circle cx="12.5" cy="12.5" r="12.5" stroke="none"/>
            <circle cx="12.5" cy="12.5" r="12" fill="none"/>
          </g>
        </g>
        <g transform="matrix(1, -0.05, 0.05, 1, -204.25, -301.85)" filter="url(#Ellisse_16)">
          <g id="Ellisse_16-3" data-name="Ellisse 16" transform="translate(464.43 387.69) rotate(3)" fill="#fff" stroke="#fff" stroke-width="1">
            <circle cx="12.5" cy="12.5" r="12.5" stroke="none"/>
            <circle cx="12.5" cy="12.5" r="12" fill="none"/>
          </g>
        </g>
        <g transform="matrix(1, -0.05, 0.05, 1, -204.25, -301.85)" filter="url(#Ellisse_17)">
          <g id="Ellisse_17-3" data-name="Ellisse 17" transform="translate(749.36 542.81) rotate(3)" fill="#fff" stroke="#fff" stroke-width="1">
            <circle cx="10" cy="10" r="10" stroke="none"/>
            <circle cx="10" cy="10" r="9.5" fill="none"/>
          </g>
        </g>
        <g transform="matrix(1, -0.05, 0.05, 1, -204.25, -301.85)" filter="url(#Ellisse_18)">
          <g id="Ellisse_18-3" data-name="Ellisse 18" transform="translate(905.94 537) rotate(3)" fill="#fff" stroke="#fff" stroke-width="1">
            <ellipse cx="12.5" cy="12" rx="12.5" ry="12" stroke="none"/>
            <ellipse cx="12.5" cy="12" rx="12" ry="11.5" fill="none"/>
          </g>
        </g>
        <circle id="Ellisse_19" data-name="Ellisse 19" cx="10" cy="10" r="10" transform="translate(893.59 213)" fill="#fff" opacity="0.02"/>
        <g transform="matrix(1, -0.05, 0.05, 1, -204.25, -301.85)" filter="url(#Ellisse_20)">
          <g id="Ellisse_20-3" data-name="Ellisse 20" transform="translate(1059.41 571.08) rotate(3)" fill="#fff" stroke="#fff" stroke-width="1">
            <circle cx="10" cy="10" r="10" stroke="none"/>
            <circle cx="10" cy="10" r="9.5" fill="none"/>
          </g>
        </g>
        <g transform="matrix(1, -0.05, 0.05, 1, -204.25, -301.85)" filter="url(#Ellisse_21)">
          <g id="Ellisse_21-3" data-name="Ellisse 21" transform="translate(188.18 312.13) rotate(3)" fill="#fff" stroke="#fff" stroke-width="1">
            <circle cx="15" cy="15" r="15" stroke="none"/>
            <circle cx="15" cy="15" r="14.5" fill="none"/>
          </g>
        </g>
        <g transform="matrix(1, -0.05, 0.05, 1, -204.25, -301.85)" filter="url(#Ellisse_22)">
          <g id="Ellisse_22-2" data-name="Ellisse 22" transform="translate(344.88 361.4) rotate(3)" fill="#fff" stroke="#fff" stroke-width="1">
            <circle cx="12.5" cy="12.5" r="12.5" stroke="none"/>
            <circle cx="12.5" cy="12.5" r="12" fill="none"/>
          </g>
        </g>
        <g transform="matrix(1, -0.05, 0.05, 1, -204.25, -301.85)" filter="url(#Ellisse_23)">
          <g id="Ellisse_23-3" data-name="Ellisse 23" transform="translate(583.16 486.04) rotate(3)" fill="#fff" stroke="#fff" stroke-width="1">
            <circle cx="12.5" cy="12.5" r="12.5" stroke="none"/>
            <circle cx="12.5" cy="12.5" r="12" fill="none"/>
          </g>
        </g>
        <g transform="matrix(1, -0.05, 0.05, 1, -204.25, -301.85)" filter="url(#Ellisse_24)">
          <g id="Ellisse_24-3" data-name="Ellisse 24" transform="translate(464.43 387.69) rotate(3)" fill="#fff" stroke="#fff" stroke-width="1">
            <circle cx="12.5" cy="12.5" r="12.5" stroke="none"/>
            <circle cx="12.5" cy="12.5" r="12" fill="none"/>
          </g>
        </g>
        <g transform="matrix(1, -0.05, 0.05, 1, -204.25, -301.85)" filter="url(#Ellisse_25)">
          <g id="Ellisse_25-3" data-name="Ellisse 25" transform="translate(749.36 542.81) rotate(3)" fill="#fff" stroke="#fff" stroke-width="1">
            <circle cx="10" cy="10" r="10" stroke="none"/>
            <circle cx="10" cy="10" r="9.5" fill="none"/>
          </g>
        </g>
        <g transform="matrix(1, -0.05, 0.05, 1, -204.25, -301.85)" filter="url(#Ellisse_26)">
          <g id="Ellisse_26-3" data-name="Ellisse 26" transform="translate(905.94 537) rotate(3)" fill="#fff" stroke="#fff" stroke-width="1">
            <ellipse cx="12.5" cy="12" rx="12.5" ry="12" stroke="none"/>
            <ellipse cx="12.5" cy="12" rx="12" ry="11.5" fill="none"/>
          </g>
        </g>
        <g transform="matrix(1, -0.05, 0.05, 1, -204.25, -301.85)" filter="url(#Ellisse_27)">
          <g id="Ellisse_27-3" data-name="Ellisse 27" transform="translate(1059.41 571.08) rotate(3)" fill="#fff" stroke="#fff" stroke-width="1">
            <circle cx="10" cy="10" r="10" stroke="none"/>
            <circle cx="10" cy="10" r="9.5" fill="none"/>
          </g>
        </g>
        <g transform="matrix(1, -0.05, 0.05, 1, -204.25, -301.85)" filter="url(#Ellisse_28)">
          <g id="Ellisse_28-3" data-name="Ellisse 28" transform="translate(188.18 312.13) rotate(3)" fill="#fff" stroke="#fff" stroke-width="1">
            <circle cx="15" cy="15" r="15" stroke="none"/>
            <circle cx="15" cy="15" r="14.5" fill="none"/>
          </g>
        </g>
        <g transform="matrix(1, -0.05, 0.05, 1, -204.25, -301.85)" filter="url(#Ellisse_29)">
          <g id="Ellisse_29-2" data-name="Ellisse 29" transform="translate(344.88 361.4) rotate(3)" fill="#fff" stroke="#fff" stroke-width="1">
            <circle cx="12.5" cy="12.5" r="12.5" stroke="none"/>
            <circle cx="12.5" cy="12.5" r="12" fill="none"/>
          </g>
        </g>
        <g transform="matrix(1, -0.05, 0.05, 1, -204.25, -301.85)" filter="url(#Ellisse_30)">
          <g id="Ellisse_30-3" data-name="Ellisse 30" transform="translate(583.16 486.04) rotate(3)" fill="#fff" stroke="#fff" stroke-width="1">
            <circle cx="12.5" cy="12.5" r="12.5" stroke="none"/>
            <circle cx="12.5" cy="12.5" r="12" fill="none"/>
          </g>
        </g>
        <g transform="matrix(1, -0.05, 0.05, 1, -204.25, -301.85)" filter="url(#Ellisse_31)">
          <g id="Ellisse_31-3" data-name="Ellisse 31" transform="translate(464.43 387.69) rotate(3)" fill="#fff" stroke="#fff" stroke-width="1">
            <circle cx="12.5" cy="12.5" r="12.5" stroke="none"/>
            <circle cx="12.5" cy="12.5" r="12" fill="none"/>
          </g>
        </g>
        <g transform="matrix(1, -0.05, 0.05, 1, -204.25, -301.85)" filter="url(#Ellisse_32)">
          <g id="Ellisse_32-3" data-name="Ellisse 32" transform="translate(749.36 542.81) rotate(3)" fill="#fff" stroke="#fff" stroke-width="1">
            <circle cx="10" cy="10" r="10" stroke="none"/>
            <circle cx="10" cy="10" r="9.5" fill="none"/>
          </g>
        </g>
        <g transform="matrix(1, -0.05, 0.05, 1, -204.25, -301.85)" filter="url(#Ellisse_33)">
          <g id="Ellisse_33-3" data-name="Ellisse 33" transform="translate(905.94 537) rotate(3)" fill="#fff" stroke="#fff" stroke-width="1">
            <ellipse cx="12.5" cy="12" rx="12.5" ry="12" stroke="none"/>
            <ellipse cx="12.5" cy="12" rx="12" ry="11.5" fill="none"/>
          </g>
        </g>
        <g transform="matrix(1, -0.05, 0.05, 1, -204.25, -301.85)" filter="url(#Ellisse_34)">
          <g id="Ellisse_34-3" data-name="Ellisse 34" transform="translate(1059.41 571.08) rotate(3)" fill="#fff" stroke="#fff" stroke-width="1">
            <circle cx="10" cy="10" r="10" stroke="none"/>
            <circle cx="10" cy="10" r="9.5" fill="none"/>
          </g>
        </g>
      </g>
    </g>
    <g id="Lights-2" data-name="Lights" transform="matrix(0.848, -0.53, 0.53, 0.848, 205.502, 364.088)">
      <path id="line-2" data-name="line" d="M261.235-39.475c6.257,89.356,115.316,152.021,177.891,143.9s134.089,23.209,203.815,116.046,185.043,8.123,296.783,38.3,160.907,6.963,160.907,6.963" fill="none" stroke="#3b3b3b" stroke-width="1"/>
      <g id="light_spheres-2" data-name="light spheres" transform="translate(330 50.844)">
        <g transform="matrix(0.85, 0.53, -0.53, 0.85, -92.99, -630.14)" filter="url(#Ellisse_13-2)">
          <g id="Ellisse_13-4" data-name="Ellisse 13" transform="matrix(0.85, -0.53, 0.53, 0.85, 412.78, 485.11)" fill="#fff" stroke="#fff" stroke-width="1">
            <circle cx="15" cy="15" r="15" stroke="none"/>
            <circle cx="15" cy="15" r="14.5" fill="none"/>
          </g>
        </g>
        <g transform="matrix(0.85, 0.53, -0.53, 0.85, -92.99, -630.14)" filter="url(#Ellisse_15-2)">
          <g id="Ellisse_15-4" data-name="Ellisse 15" transform="matrix(0.85, -0.53, 0.53, 0.85, 745.81, 457.43)" fill="#fff" stroke="#fff" stroke-width="1">
            <circle cx="12.5" cy="12.5" r="12.5" stroke="none"/>
            <circle cx="12.5" cy="12.5" r="12" fill="none"/>
          </g>
        </g>
        <g transform="matrix(0.85, 0.53, -0.53, 0.85, -92.99, -630.14)" filter="url(#Ellisse_16-2)">
          <g id="Ellisse_16-4" data-name="Ellisse 16" transform="matrix(0.85, -0.53, 0.53, 0.85, 619.81, 427.67)" fill="#fff" stroke="#fff" stroke-width="1">
            <circle cx="12.5" cy="12.5" r="12.5" stroke="none"/>
            <circle cx="12.5" cy="12.5" r="12" fill="none"/>
          </g>
        </g>
        <g transform="matrix(0.85, 0.53, -0.53, 0.85, -92.99, -630.14)" filter="url(#Ellisse_17-2)">
          <g id="Ellisse_17-4" data-name="Ellisse 17" transform="matrix(0.85, -0.53, 0.53, 0.85, 877.43, 431.78)" fill="#fff" stroke="#fff" stroke-width="1">
            <circle cx="10" cy="10" r="10" stroke="none"/>
            <circle cx="10" cy="10" r="9.5" fill="none"/>
          </g>
        </g>
        <g transform="matrix(0.85, 0.53, -0.53, 0.85, -92.99, -630.14)" filter="url(#Ellisse_18-2)">
          <g id="Ellisse_18-4" data-name="Ellisse 18" transform="matrix(0.85, -0.53, 0.53, 0.85, 966.73, 359.47)" fill="#fff" stroke="#fff" stroke-width="1">
            <ellipse cx="12.5" cy="12" rx="12.5" ry="12" stroke="none"/>
            <ellipse cx="12.5" cy="12" rx="12" ry="11.5" fill="none"/>
          </g>
        </g>
        <circle id="Ellisse_19-2" data-name="Ellisse 19" cx="10" cy="10" r="10" transform="translate(659.177 213)" fill="#fff" opacity="0.02"/>
        <g transform="matrix(0.85, 0.53, -0.53, 0.85, -92.99, -630.14)" filter="url(#Ellisse_20-2)">
          <g id="Ellisse_20-4" data-name="Ellisse 20" transform="matrix(0.85, -0.53, 0.53, 0.85, 1076.19, 321.73)" fill="#fff" stroke="#fff" stroke-width="1">
            <circle cx="10" cy="10" r="10" stroke="none"/>
            <circle cx="10" cy="10" r="9.5" fill="none"/>
          </g>
        </g>
        <g transform="matrix(0.85, 0.53, -0.53, 0.85, -92.99, -630.14)" filter="url(#Ellisse_21-2)">
          <g id="Ellisse_21-4" data-name="Ellisse 21" transform="matrix(0.85, -0.53, 0.53, 0.85, 412.78, 485.11)" fill="#fff" stroke="#fff" stroke-width="1">
            <circle cx="15" cy="15" r="15" stroke="none"/>
            <circle cx="15" cy="15" r="14.5" fill="none"/>
          </g>
        </g>
        <g transform="matrix(0.85, 0.53, -0.53, 0.85, -92.99, -630.14)" filter="url(#Ellisse_23-2)">
          <g id="Ellisse_23-4" data-name="Ellisse 23" transform="matrix(0.85, -0.53, 0.53, 0.85, 745.81, 457.43)" fill="#fff" stroke="#fff" stroke-width="1">
            <circle cx="12.5" cy="12.5" r="12.5" stroke="none"/>
            <circle cx="12.5" cy="12.5" r="12" fill="none"/>
          </g>
        </g>
        <g transform="matrix(0.85, 0.53, -0.53, 0.85, -92.99, -630.14)" filter="url(#Ellisse_24-2)">
          <g id="Ellisse_24-4" data-name="Ellisse 24" transform="matrix(0.85, -0.53, 0.53, 0.85, 619.81, 427.67)" fill="#fff" stroke="#fff" stroke-width="1">
            <circle cx="12.5" cy="12.5" r="12.5" stroke="none"/>
            <circle cx="12.5" cy="12.5" r="12" fill="none"/>
          </g>
        </g>
        <g transform="matrix(0.85, 0.53, -0.53, 0.85, -92.99, -630.14)" filter="url(#Ellisse_25-2)">
          <g id="Ellisse_25-4" data-name="Ellisse 25" transform="matrix(0.85, -0.53, 0.53, 0.85, 877.43, 431.78)" fill="#fff" stroke="#fff" stroke-width="1">
            <circle cx="10" cy="10" r="10" stroke="none"/>
            <circle cx="10" cy="10" r="9.5" fill="none"/>
          </g>
        </g>
        <g transform="matrix(0.85, 0.53, -0.53, 0.85, -92.99, -630.14)" filter="url(#Ellisse_26-2)">
          <g id="Ellisse_26-4" data-name="Ellisse 26" transform="matrix(0.85, -0.53, 0.53, 0.85, 966.73, 359.47)" fill="#fff" stroke="#fff" stroke-width="1">
            <ellipse cx="12.5" cy="12" rx="12.5" ry="12" stroke="none"/>
            <ellipse cx="12.5" cy="12" rx="12" ry="11.5" fill="none"/>
          </g>
        </g>
        <g transform="matrix(0.85, 0.53, -0.53, 0.85, -92.99, -630.14)" filter="url(#Ellisse_27-2)">
          <g id="Ellisse_27-4" data-name="Ellisse 27" transform="matrix(0.85, -0.53, 0.53, 0.85, 1076.19, 321.73)" fill="#fff" stroke="#fff" stroke-width="1">
            <circle cx="10" cy="10" r="10" stroke="none"/>
            <circle cx="10" cy="10" r="9.5" fill="none"/>
          </g>
        </g>
        <g transform="matrix(0.85, 0.53, -0.53, 0.85, -92.99, -630.14)" filter="url(#Ellisse_28-2)">
          <g id="Ellisse_28-4" data-name="Ellisse 28" transform="matrix(0.85, -0.53, 0.53, 0.85, 412.78, 485.11)" fill="#fff" stroke="#fff" stroke-width="1">
            <circle cx="15" cy="15" r="15" stroke="none"/>
            <circle cx="15" cy="15" r="14.5" fill="none"/>
          </g>
        </g>
        <g transform="matrix(0.85, 0.53, -0.53, 0.85, -92.99, -630.14)" filter="url(#Ellisse_30-2)">
          <g id="Ellisse_30-4" data-name="Ellisse 30" transform="matrix(0.85, -0.53, 0.53, 0.85, 745.81, 457.43)" fill="#fff" stroke="#fff" stroke-width="1">
            <circle cx="12.5" cy="12.5" r="12.5" stroke="none"/>
            <circle cx="12.5" cy="12.5" r="12" fill="none"/>
          </g>
        </g>
        <g transform="matrix(0.85, 0.53, -0.53, 0.85, -92.99, -630.14)" filter="url(#Ellisse_31-2)">
          <g id="Ellisse_31-4" data-name="Ellisse 31" transform="matrix(0.85, -0.53, 0.53, 0.85, 619.81, 427.67)" fill="#fff" stroke="#fff" stroke-width="1">
            <circle cx="12.5" cy="12.5" r="12.5" stroke="none"/>
            <circle cx="12.5" cy="12.5" r="12" fill="none"/>
          </g>
        </g>
        <g transform="matrix(0.85, 0.53, -0.53, 0.85, -92.99, -630.14)" filter="url(#Ellisse_32-2)">
          <g id="Ellisse_32-4" data-name="Ellisse 32" transform="matrix(0.85, -0.53, 0.53, 0.85, 877.43, 431.78)" fill="#fff" stroke="#fff" stroke-width="1">
            <circle cx="10" cy="10" r="10" stroke="none"/>
            <circle cx="10" cy="10" r="9.5" fill="none"/>
          </g>
        </g>
        <g transform="matrix(0.85, 0.53, -0.53, 0.85, -92.99, -630.14)" filter="url(#Ellisse_33-2)">
          <g id="Ellisse_33-4" data-name="Ellisse 33" transform="matrix(0.85, -0.53, 0.53, 0.85, 966.73, 359.47)" fill="#fff" stroke="#fff" stroke-width="1">
            <ellipse cx="12.5" cy="12" rx="12.5" ry="12" stroke="none"/>
            <ellipse cx="12.5" cy="12" rx="12" ry="11.5" fill="none"/>
          </g>
        </g>
        <g transform="matrix(0.85, 0.53, -0.53, 0.85, -92.99, -630.14)" filter="url(#Ellisse_34-2)">
          <g id="Ellisse_34-4" data-name="Ellisse 34" transform="matrix(0.85, -0.53, 0.53, 0.85, 1076.19, 321.73)" fill="#fff" stroke="#fff" stroke-width="1">
            <circle cx="10" cy="10" r="10" stroke="none"/>
            <circle cx="10" cy="10" r="9.5" fill="none"/>
          </g>
        </g>
      </g>
    </g>
  </g>
</svg>
